<svg id="eZMzsxtFBac1" xmlns="http://www.w3.org/2000/svg" xmlns:xlink="http://www.w3.org/1999/xlink" viewBox="0 0 342 100" shape-rendering="geometricPrecision" text-rendering="geometricPrecision"><g id="eZMzsxtFBac2"><path id="eZMzsxtFBac3" d="M70.272000,40.364000C70.308000,38.564000,69.192000,37.124000,67.392000,36.980000C62.784000,36.656000,54.036000,36.620000,50.472000,37.268000C48.924000,37.592000,47.304000,38.888000,46.728000,40.688000C46.116000,42.524000,46.296000,44.432000,48.024000,44.900000C49.284000,45.296000,51.048000,45.512000,52.992000,45.656000C51.624000,50.696000,50.472000,57.140000,50.688000,59.876000C50.976000,63.260000,56.664000,63.440000,58.212000,59.876000C59.688000,56.564000,61.056000,50.372000,61.668000,45.548000C63.684000,45.368000,65.520000,45.116000,66.960000,44.720000C69.156000,44.216000,70.200000,42.236000,70.272000,40.364000ZM70.405900,55.916000C72.457900,61.460000,79.801900,64.052000,87.361900,60.740000C95.965900,56.996000,99.277900,47.312000,96.037900,41.768000C93.229900,36.908000,86.209900,35.108000,79.117900,38.672000C71.953900,42.236000,67.993900,49.400000,70.405900,55.916000ZM81.925900,45.548000C84.481900,44.216000,86.965900,44.864000,87.973900,46.592000C89.125900,48.644000,87.901900,52.172000,84.841900,53.576000C82.141900,54.836000,79.513900,53.900000,78.793900,51.884000C77.929900,49.508000,79.369900,46.880000,81.925900,45.548000ZM116.761000,53.792000C114.205000,53.504000,110.893000,53.756000,107.869000,54.116000C109.165000,49.760000,110.461000,44.144000,110.497000,40.148000C110.533000,37.664000,109.165000,36.800000,107.365000,36.728000C105.421000,36.692000,103.117000,37.376000,102.253000,39.752000C101.461000,41.876000,101.029000,45.260000,100.381000,48.392000C99.553200,52.352000,98.581200,56.060000,98.689200,58.040000C98.797200,59.696000,99.589200,60.704000,100.669000,61.352000C102.649000,62.504000,107.077000,62.144000,108.661000,62C110.965000,61.820000,114.565000,61.604000,116.833000,60.488000C118.165000,59.840000,119.029000,58.112000,118.993000,56.636000C118.957000,55.448000,118.417000,53.936000,116.761000,53.792000ZM146.134000,56.024000C146.350000,54.548000,146.566000,53.396000,146.530000,52.532000C146.494000,51.200000,146.026000,50.408000,144.910000,50.048000C143.362000,49.544000,140.806000,49.436000,137.890000,49.796000C135.622000,50.048000,133.930000,52.712000,134.506000,54.404000C133.570000,54.440000,132.670000,54.188000,132.022000,53.648000C130.330000,52.244000,130.438000,50.336000,131.194000,48.500000C131.842000,47.024000,133.210000,45.872000,134.650000,45.260000C136.450000,44.468000,138.718000,44.216000,140.338000,45.728000C141.346000,46.664000,143.038000,47.600000,145.270000,46.196000C147.826000,44.612000,148.618000,41.732000,146.674000,39.788000C145.126000,38.240000,141.886000,36.296000,136.342000,36.980000C129.862000,37.772000,125.218000,42.380000,123.346000,46.340000C121.690000,49.868000,121.258000,54.044000,123.202000,57.500000C124.786000,60.380000,127.486000,62.252000,132.634000,62.072000C134.758000,61.964000,136.846000,61.460000,138.574000,60.776000C138.934000,62.072000,140.446000,62.144000,141.922000,62C143.866000,61.820000,145.126000,60.776000,145.522000,59.192000C145.846000,57.896000,145.954000,57.320000,146.134000,56.024000ZM174.542000,56.312000C174.146000,53.180000,173.426000,50.012000,172.634000,47.240000C171.734000,44.036000,170.474000,41.192000,169.754000,39.716000C168.674000,37.556000,167.918000,36.800000,165.938000,36.836000C164.030000,36.836000,162.950000,37.556000,160.610000,40.076000C159.278000,41.516000,156.254000,45.476000,154.706000,47.744000C153.086000,50.048000,150.098000,54.620000,148.946000,57.608000C148.118000,59.732000,148.982000,61.496000,150.674000,62.108000C152.798000,62.864000,155.246000,62.036000,156.614000,60.020000C157.046000,59.408000,156.902000,59.588000,157.334000,58.868000C157.694000,58.256000,157.982000,58.364000,158.342000,58.364000C158.954000,58.364000,160.286000,58.472000,161.546000,58.436000C163.454000,58.400000,164.642000,58.292000,165.254000,58.256000C165.542000,58.220000,165.650000,58.256000,165.722000,58.544000C165.830000,58.976000,165.794000,59.012000,166.046000,59.984000C166.550000,61.892000,168.602000,62.972000,171.266000,62.108000C173.786000,61.316000,174.974000,58.976000,174.542000,56.312000ZM163.886000,51.884000C163.238000,51.992000,162.338000,52.028000,161.762000,51.956000C161.222000,51.884000,160.934000,51.668000,161.294000,50.948000C161.618000,50.300000,162.158000,49.436000,162.662000,48.860000C163.238000,48.212000,163.886000,48.140000,164.210000,48.896000C164.462000,49.436000,164.678000,50.156000,164.750000,50.768000C164.858000,51.488000,164.570000,51.776000,163.886000,51.884000ZM212.471000,56.960000C212.291000,55.592000,211.643000,54.404000,211.031000,52.856000C210.599000,51.812000,209.591000,49.508000,208.763000,47.672000C209.159000,47.384000,209.555000,47.060000,209.987000,46.700000C212.723000,44.576000,213.947000,43.352000,214.703000,41.912000C215.351000,40.724000,215.459000,39.716000,214.775000,38.456000C214.055000,37.088000,211.607000,36.620000,209.591000,38.276000C207.827000,39.680000,205.991000,41.372000,203.651000,43.388000C203.939000,42.128000,204.191000,41.012000,204.299000,40.076000C204.515000,37.916000,202.787000,36.764000,200.843000,36.728000C198.827000,36.656000,196.631000,37.700000,195.839000,39.824000C193.859000,45.152000,191.951000,54.980000,191.987000,59.192000C192.023000,61.136000,193.895000,62.216000,195.659000,62.180000C197.459000,62.180000,199.583000,61.352000,200.339000,59.372000C200.915000,57.860000,201.311000,55.340000,201.779000,52.460000C202.031000,53.252000,202.319000,54.080000,202.715000,55.196000C203.579000,57.572000,204.047000,58.724000,204.875000,60.380000C205.919000,62.504000,208.367000,62.324000,210.131000,61.460000C211.931000,60.596000,212.759000,58.904000,212.471000,56.960000ZM241.079000,56.312000C240.683000,53.180000,239.963000,50.012000,239.171000,47.240000C238.271000,44.036000,237.011000,41.192000,236.291000,39.716000C235.211000,37.556000,234.455000,36.800000,232.475000,36.836000C230.567000,36.836000,229.487000,37.556000,227.147000,40.076000C225.815000,41.516000,222.791000,45.476000,221.243000,47.744000C219.623000,50.048000,216.635000,54.620000,215.483000,57.608000C214.655000,59.732000,215.519000,61.496000,217.211000,62.108000C219.335000,62.864000,221.783000,62.036000,223.151000,60.020000C223.583000,59.408000,223.439000,59.588000,223.871000,58.868000C224.231000,58.256000,224.519000,58.364000,224.879000,58.364000C225.491000,58.364000,226.823000,58.472000,228.083000,58.436000C229.991000,58.400000,231.179000,58.292000,231.791000,58.256000C232.079000,58.220000,232.187000,58.256000,232.259000,58.544000C232.367000,58.976000,232.331000,59.012000,232.583000,59.984000C233.087000,61.892000,235.139000,62.972000,237.803000,62.108000C240.323000,61.316000,241.511000,58.976000,241.079000,56.312000ZM230.423000,51.884000C229.775000,51.992000,228.875000,52.028000,228.299000,51.956000C227.759000,51.884000,227.471000,51.668000,227.831000,50.948000C228.155000,50.300000,228.695000,49.436000,229.199000,48.860000C229.775000,48.212000,230.423000,48.140000,230.747000,48.896000C230.999000,49.436000,231.215000,50.156000,231.287000,50.768000C231.395000,51.488000,231.107000,51.776000,230.423000,51.884000ZM264.796000,37.880000C262.024000,36.512000,258.604000,36.584000,254.608000,37.088000C250.612000,37.628000,248.344000,39.716000,247.336000,42.596000C246.040000,46.412000,245.104000,52.712000,244.204000,57.968000C243.196000,64.088000,250.612000,63.764000,252.016000,59.696000C252.808000,57.284000,253.492000,54.872000,253.492000,54.872000C253.492000,54.872000,254.428000,58.436000,255.328000,60.380000C256.300000,62.432000,258.748000,62.360000,260.764000,61.136000C262.096000,60.272000,263.428000,58.652000,263.068000,57.140000C262.420000,54.692000,260.836000,51.308000,260.836000,51.308000C260.836000,51.308000,266.236000,50.048000,267.856000,46.340000C269.620000,42.164000,268.180000,39.536000,264.796000,37.880000ZM255.292000,46.376000C254.716000,45.728000,255.328000,43.460000,255.940000,42.920000C256.876000,42.092000,259.864000,42.416000,259.720000,44.396000C259.540000,46.340000,255.868000,47.024000,255.292000,46.376000ZM292.386000,56.312000C291.990000,53.180000,291.270000,50.012000,290.478000,47.240000C289.578000,44.036000,288.318000,41.192000,287.598000,39.716000C286.518000,37.556000,285.762000,36.800000,283.782000,36.836000C281.874000,36.836000,280.794000,37.556000,278.454000,40.076000C277.122000,41.516000,274.098000,45.476000,272.550000,47.744000C270.930000,50.048000,267.942000,54.620000,266.790000,57.608000C265.962000,59.732000,266.826000,61.496000,268.518000,62.108000C270.642000,62.864000,273.090000,62.036000,274.458000,60.020000C274.890000,59.408000,274.746000,59.588000,275.178000,58.868000C275.538000,58.256000,275.826000,58.364000,276.186000,58.364000C276.798000,58.364000,278.130000,58.472000,279.390000,58.436000C281.298000,58.400000,282.486000,58.292000,283.098000,58.256000C283.386000,58.220000,283.494000,58.256000,283.566000,58.544000C283.674000,58.976000,283.638000,59.012000,283.890000,59.984000C284.394000,61.892000,286.446000,62.972000,289.110000,62.108000C291.630000,61.316000,292.818000,58.976000,292.386000,56.312000ZM281.730000,51.884000C281.082000,51.992000,280.182000,52.028000,279.606000,51.956000C279.066000,51.884000,278.778000,51.668000,279.138000,50.948000C279.462000,50.300000,280.002000,49.436000,280.506000,48.860000C281.082000,48.212000,281.730000,48.140000,282.054000,48.896000C282.306000,49.436000,282.522000,50.156000,282.594000,50.768000C282.702000,51.488000,282.414000,51.776000,281.730000,51.884000Z" transform="matrix(1 0 0 1 0.44054031372070 0)" fill="rgb(232,110,28)" stroke="none" stroke-width="1"/><path id="eZMzsxtFBac4" d="M70.272000,40.364000L71.770900,40.421600L71.771400,40.407800L71.771700,40.394000L70.272000,40.364000ZM67.392000,36.980000L67.511600,35.484800L67.504400,35.484200L67.497200,35.483700L67.392000,36.980000ZM50.472000,37.268000L50.203700,35.792200L50.184100,35.795700L50.164700,35.799800L50.472000,37.268000ZM46.728000,40.688000L48.151000,41.162300L48.153900,41.153800L48.156600,41.145200L46.728000,40.688000ZM48.024000,44.900000L48.473700,43.469000L48.445100,43.460000L48.416100,43.452200L48.024000,44.900000ZM52.992000,45.656000L54.439600,46.048900L54.915900,44.294400L53.102800,44.160100L52.992000,45.656000ZM50.688000,59.876000L49.192600,59.994100L49.193400,60.003200L50.688000,59.876000ZM58.212000,59.876000L56.841900,59.265400L56.839000,59.271900L56.836200,59.278400L58.212000,59.876000ZM61.668000,45.548000L61.534600,44.053900L60.331900,44.161300L60.179900,45.359200L61.668000,45.548000ZM66.960000,44.720000L66.624500,43.258000L66.593200,43.265200L66.562300,43.273700L66.960000,44.720000ZM71.771700,40.394000C71.821100,37.923300,70.219500,35.701400,67.511600,35.484800L67.272400,38.475200C68.164500,38.546600,68.794900,39.204700,68.772300,40.334000L71.771700,40.394000ZM67.497200,35.483700C65.144400,35.318300,61.764300,35.227800,58.525800,35.259600C55.318500,35.291100,52.124900,35.442900,50.203700,35.792200L50.740300,38.743800C52.383100,38.445100,55.345500,38.290900,58.555200,38.259400C61.733700,38.228200,65.031600,38.317700,67.286800,38.476300L67.497200,35.483700ZM50.164700,35.799800C48.116800,36.228400,46.048700,37.889300,45.299400,40.230800L48.156600,41.145200C48.559300,39.886700,49.731200,38.955600,50.779300,38.736200L50.164700,35.799800ZM45.305000,40.213700C44.947500,41.286100,44.766800,42.524700,45.040300,43.658700C45.336500,44.886600,46.173200,45.952800,47.631900,46.347800L48.416100,43.452200C48.237100,43.403700,48.156500,43.337500,48.112700,43.289700C48.063100,43.235500,48.000600,43.137300,47.956700,42.955300C47.861200,42.559300,47.896500,41.925900,48.151000,41.162300L45.305000,40.213700ZM47.574300,46.331000C49.014900,46.783800,50.932300,47.007500,52.881200,47.151900L53.102800,44.160100C51.163700,44.016500,49.553100,43.808200,48.473700,43.469000L47.574300,46.331000ZM51.544400,45.263100C50.847500,47.830400,50.206800,50.750000,49.766500,53.382600C49.333900,55.969500,49.068800,58.425300,49.192700,59.994100L52.183300,59.757900C52.091200,58.590700,52.294100,56.456500,52.725500,53.877400C53.149200,51.344000,53.768500,48.521600,54.439600,46.048900L51.544400,45.263100ZM49.193400,60.003200C49.428100,62.760900,51.874500,63.953000,53.957100,63.981400C56.076300,64.010200,58.522600,62.926100,59.587800,60.473600L56.836200,59.278400C56.353400,60.389900,55.181700,60.997800,53.997900,60.981600C52.777500,60.965000,52.235900,60.375100,52.182600,59.748800L49.193400,60.003200ZM59.582100,60.486600C61.147400,56.974300,62.537700,50.610700,63.156100,45.736800L60.179900,45.359200C59.574300,50.133300,58.228600,56.153700,56.841900,59.265400L59.582100,60.486600ZM61.801400,47.042100C63.841200,46.859900,65.785000,46.598800,67.357700,46.166300L66.562300,43.273700C65.255000,43.633200,63.526800,43.876100,61.534600,44.053900L61.801400,47.042100ZM67.295500,46.182000C70.358700,45.479000,71.682000,42.732600,71.770900,40.421600L68.773100,40.306400C68.718000,41.739400,67.953300,42.953000,66.624500,43.258000L67.295500,46.182000ZM70.405900,55.916000L71.812600,55.395300L71.812600,55.395300L70.405900,55.916000ZM87.361900,60.740000L86.763400,59.364600L86.760000,59.366100L87.361900,60.740000ZM96.037900,41.768000L94.739100,42.518400L94.742800,42.524900L96.037900,41.768000ZM79.117900,38.672000L79.786000,40.015000L79.791400,40.012300L79.117900,38.672000ZM87.973900,46.592000L89.281900,45.857700L89.275800,45.846900L89.269500,45.836200L87.973900,46.592000ZM84.841900,53.576000L84.216300,52.212600L84.207500,52.216700L84.841900,53.576000ZM78.793900,51.884000L80.206500,51.379500L80.203600,51.371400L78.793900,51.884000ZM68.999100,56.436700C71.451900,63.063400,79.908600,65.642900,87.963800,62.113900L86.760000,59.366100C79.695200,62.461100,73.463900,59.856600,71.812600,55.395300L68.999100,56.436700ZM87.960400,62.115400C92.636600,60.080600,95.885800,56.426600,97.525200,52.507900C99.150400,48.623000,99.254300,44.298900,97.332900,41.011100L94.742800,42.524900C96.061400,44.781100,96.129400,48.071000,94.757600,51.350100C93.399900,54.595400,90.691200,57.655400,86.763400,59.364600L87.960400,62.115400ZM97.336700,41.017600C94.014900,35.268300,86.017900,33.525700,78.444300,37.331700L79.791400,40.012300C86.401800,36.690300,92.444900,38.547700,94.739100,42.518400L97.336700,41.017600ZM78.449800,37.329000C70.857400,41.106100,66.231900,48.960900,68.999200,56.436700L71.812600,55.395300C69.755900,49.839100,73.050300,43.365900,79.786000,40.015000L78.449800,37.329000ZM82.619100,46.878200C84.683400,45.802400,86.187100,46.505800,86.678200,47.347800L89.269500,45.836200C87.744700,43.222200,84.280300,42.629600,81.232700,44.217800L82.619100,46.878200ZM86.665900,47.326300C86.955200,47.841700,87.024400,48.732500,86.601600,49.752800C86.192100,50.741200,85.379700,51.678900,84.216300,52.212700L85.467400,54.939300C87.364000,54.069100,88.693700,52.540800,89.373100,50.901200C90.039300,49.293500,90.144500,47.394300,89.281900,45.857700L86.665900,47.326300ZM84.207500,52.216700C82.023200,53.236100,80.532700,52.292900,80.206500,51.379500L77.381300,52.388500C78.495000,55.507100,82.260600,56.435900,85.476200,54.935300L84.207500,52.216700ZM80.203600,51.371400C79.682900,49.939500,80.479200,47.993400,82.619100,46.878200L81.232700,44.217800C78.260600,45.766600,76.176900,49.076500,77.384200,52.396600L80.203600,51.371400ZM116.761000,53.792000L116.593000,55.282600L116.612000,55.284700L116.631000,55.286400L116.761000,53.792000ZM107.869000,54.116000L106.432000,53.688200L105.781000,55.875200L108.047000,55.605500L107.869000,54.116000ZM110.497000,40.148000L108.997000,40.126300L108.997000,40.134500L110.497000,40.148000ZM107.365000,36.728000L107.425000,35.229200L107.409000,35.228600L107.393000,35.228300L107.365000,36.728000ZM102.253000,39.752000L103.659000,40.276100L103.663000,40.264600L102.253000,39.752000ZM100.381000,48.392000L101.849000,48.699000L101.850000,48.695900L100.381000,48.392000ZM98.689200,58.040000L97.191400,58.121700L97.191900,58.129700L97.192400,58.137600L98.689200,58.040000ZM100.669000,61.352000L99.897500,62.638200L99.906100,62.643400L99.914900,62.648500L100.669000,61.352000ZM108.661000,62L108.544000,60.504600L108.535000,60.505300L108.525000,60.506200L108.661000,62ZM116.833000,60.488000L116.177000,59.139100L116.171000,59.142100L116.833000,60.488000ZM118.993000,56.636000L120.493000,56.599400L120.493000,56.590600L118.993000,56.636000ZM116.929000,52.301400C114.187000,51.992500,110.726000,52.265300,107.692000,52.626500L108.047000,55.605500C111.061000,55.246700,114.223000,55.015500,116.593000,55.282600L116.929000,52.301400ZM109.307000,54.543800C110.610000,50.163700,111.959000,44.379100,111.997000,40.161500L108.997000,40.134500C108.963000,43.908900,107.720000,49.356300,106.432000,53.688200L109.307000,54.543800ZM111.997000,40.169700C112.019000,38.650500,111.608000,37.355500,110.654000,36.447100C109.727000,35.565000,108.522000,35.273100,107.425000,35.229200L107.305000,38.226800C108.008000,38.254900,108.387000,38.431000,108.585000,38.619900C108.756000,38.782500,109.011000,39.161500,108.997000,40.126300L111.997000,40.169700ZM107.393000,35.228300C105.179000,35.187300,102.031000,35.973800,100.844000,39.239400L103.663000,40.264600C104.203000,38.778200,105.663000,38.196700,107.337000,38.227700L107.393000,35.228300ZM100.848000,39.227900C100.403000,40.419600,100.078000,41.907300,99.790000,43.411700C99.490100,44.976700,99.235700,46.525200,98.912300,48.088100L101.850000,48.695900C102.175000,47.126800,102.460000,45.417300,102.736000,43.976300C103.024000,42.474700,103.311000,41.208400,103.659000,40.276100L100.848000,39.227900ZM98.913000,48.085000C98.514400,49.991400,98.043300,52.010000,97.713200,53.665100C97.383300,55.319200,97.125700,56.916900,97.191400,58.121700L100.187000,57.958300C100.145000,57.183100,100.319000,55.936800,100.655000,54.251900C100.991000,52.568000,101.420000,50.752600,101.849000,48.699000L98.913000,48.085000ZM97.192400,58.137600C97.335700,60.334900,98.440400,61.764000,99.897500,62.638200L101.441000,60.065800C100.738000,59.644000,100.259000,59.057100,100.186000,57.942400L97.192400,58.137600ZM99.914900,62.648500C101.269000,63.436300,103.224000,63.625500,104.779000,63.661600C106.421000,63.699700,107.995000,63.566700,108.797000,63.493800L108.525000,60.506200C107.743000,60.577300,106.311000,60.696300,104.848000,60.662400C103.299000,60.626500,102.050000,60.419700,101.424000,60.055500L99.914900,62.648500ZM108.778000,63.495400C109.907000,63.407300,111.444000,63.304300,112.979000,63.079100C114.496000,62.856400,116.149000,62.496600,117.495000,61.833900L116.171000,59.142100C115.250000,59.595400,113.969000,59.901600,112.543000,60.110900C111.134000,60.317700,109.720000,60.412700,108.544000,60.504600L108.778000,63.495400ZM117.489000,61.836900C118.504000,61.343400,119.257000,60.486900,119.745000,59.587200C120.234000,58.684300,120.518000,57.626300,120.493000,56.599400L117.494000,56.672600C117.505000,57.121700,117.374000,57.665700,117.107000,58.157800C116.839000,58.653100,116.495000,58.984600,116.177000,59.139100L117.489000,61.836900ZM120.493000,56.590600C120.469000,55.820700,120.285000,54.857300,119.750000,54.017200C119.179000,53.118800,118.230000,52.414000,116.891000,52.297600L116.631000,55.286400C116.949000,55.314000,117.098000,55.437200,117.219000,55.627800C117.378000,55.876700,117.481000,56.263300,117.494000,56.681400L120.493000,56.590600ZM146.134000,56.024000L144.650000,55.806800L144.648000,55.817600L146.134000,56.024000ZM146.530000,52.532000L145.031000,52.572500L145.031000,52.583500L145.031000,52.594400L146.530000,52.532000ZM144.910000,50.048000L144.446000,51.474300L144.450000,51.475600L144.910000,50.048000ZM137.890000,49.796000L138.056000,51.286800L138.065000,51.285800L138.074000,51.284700L137.890000,49.796000ZM134.506000,54.404000L134.564000,55.902900L136.575000,55.825600L135.926000,53.920600L134.506000,54.404000ZM132.022000,53.648000L132.982000,52.495700L132.980000,52.493700L132.022000,53.648000ZM131.194000,48.500000L129.821000,47.897000L129.814000,47.912900L129.807000,47.928900L131.194000,48.500000ZM134.650000,45.260000L135.237000,46.640500L135.246000,46.636800L135.254000,46.633000L134.650000,45.260000ZM140.338000,45.728000L139.315000,46.824600L139.317000,46.827200L140.338000,45.728000ZM145.270000,46.196000L144.480000,44.921000L144.471000,44.926300L145.270000,46.196000ZM146.674000,39.788000L147.735000,38.727300L147.735000,38.727300L146.674000,39.788000ZM136.342000,36.980000L136.524000,38.468900L136.526000,38.468700L136.342000,36.980000ZM123.346000,46.340000L121.990000,45.698900L121.988000,45.702600L123.346000,46.340000ZM123.202000,57.500000L124.516000,56.777100L124.513000,56.770800L124.509000,56.764600L123.202000,57.500000ZM132.634000,62.072000L132.687000,63.571100L132.698000,63.570700L132.710000,63.570100L132.634000,62.072000ZM138.574000,60.776000L140.019000,60.374500L139.573000,58.767400L138.022000,59.381300L138.574000,60.776000ZM141.922000,62L141.784000,60.506400L141.776000,60.507100L141.922000,62ZM145.522000,59.192000L146.977000,59.555800L146.977000,59.555800L145.522000,59.192000ZM147.618000,56.241200C147.815000,54.896300,148.073000,53.518700,148.029000,52.469600L145.031000,52.594400C145.060000,53.273300,144.885000,54.199700,144.650000,55.806800L147.618000,56.241200ZM148.030000,52.491500C148.008000,51.675900,147.851000,50.842900,147.390000,50.119300C146.907000,49.361500,146.195000,48.886200,145.371000,48.620400L144.450000,51.475600C144.742000,51.569800,144.821000,51.670500,144.860000,51.731700C144.921000,51.827100,145.017000,52.056100,145.031000,52.572500L148.030000,52.491500ZM145.375000,48.621700C143.519000,48.017500,140.706000,47.937000,137.706000,48.307300L138.074000,51.284700C140.906000,50.935000,143.205000,51.070500,144.446000,51.474300L145.375000,48.621700ZM137.724000,48.305200C136.056000,48.490500,134.716000,49.535000,133.902000,50.701400C133.113000,51.832000,132.588000,53.423600,133.086000,54.887400L135.926000,53.920600C135.848000,53.692400,135.882000,53.106000,136.362000,52.418600C136.816000,51.767000,137.456000,51.353500,138.056000,51.286800L137.724000,48.305200ZM134.448000,52.905100C133.796000,52.930200,133.285000,52.748000,132.982000,52.495700L131.062000,54.800300C132.055000,55.628000,133.344000,55.949800,134.564000,55.902900L134.448000,52.905100ZM132.980000,52.493700C132.437000,52.042700,132.232000,51.574500,132.182000,51.083700C132.127000,50.538800,132.255000,49.863200,132.581000,49.071100L129.807000,47.928900C129.377000,48.972800,129.073000,50.169200,129.198000,51.388300C129.328000,52.661500,129.916000,53.849300,131.064000,54.802300L132.980000,52.493700ZM132.568000,49.103000C133.028000,48.053400,134.063000,47.139200,135.237000,46.640500L134.063000,43.879500C132.357000,44.604800,130.656000,45.994600,129.821000,47.897000L132.568000,49.103000ZM135.254000,46.633000C136.847000,45.932400,138.353000,45.927000,139.315000,46.824600L141.362000,44.631400C139.083000,42.505000,136.054000,43.003600,134.046000,43.887000L135.254000,46.633000ZM139.317000,46.827200C139.931000,47.396900,140.842000,48.054300,142.034000,48.306900C143.277000,48.570300,144.652000,48.356600,146.069000,47.465700L144.471000,44.926300C143.656000,45.439400,143.070000,45.459700,142.656000,45.372100C142.192000,45.273700,141.753000,44.995100,141.359000,44.628800L139.317000,46.827200ZM146.060000,47.471000C147.613000,46.508600,148.738000,45.085600,149.119000,43.472100C149.512000,41.812700,149.080000,40.072600,147.735000,38.727300L145.613000,40.848700C146.212000,41.447400,146.357000,42.119300,146.200000,42.781900C146.032000,43.490400,145.483000,44.299400,144.480000,44.921000L146.060000,47.471000ZM147.735000,38.727300C145.869000,36.861300,142.173000,34.749200,136.158000,35.491300L136.526000,38.468700C141.599000,37.842800,144.384000,39.618700,145.613000,40.848700L147.735000,38.727300ZM136.160000,35.491100C129.073000,36.357300,124.037000,41.368800,121.990000,45.698900L124.702000,46.981100C126.399000,43.391200,130.651000,39.186700,136.524000,38.468900L136.160000,35.491100ZM121.988000,45.702600C120.202000,49.507400,119.637000,54.221800,121.895000,58.235400L124.509000,56.764600C122.879000,53.866200,123.178000,50.228600,124.704000,46.977400L121.988000,45.702600ZM121.888000,58.222900C122.793000,59.868800,124.058000,61.291300,125.878000,62.258200C127.685000,63.218300,129.925000,63.667600,132.687000,63.571100L132.582000,60.572900C130.195000,60.656400,128.511000,60.259700,127.285000,59.608800C126.073000,58.964700,125.195000,58.011200,124.516000,56.777100L121.888000,58.222900ZM132.710000,63.570100C135.011000,63.453100,137.259000,62.909700,139.126000,62.170700L138.022000,59.381300C136.433000,60.010300,134.505000,60.474900,132.558000,60.573900L132.710000,63.570100ZM137.129000,61.177500C137.489000,62.475700,138.477000,63.119800,139.443000,63.377400C140.326000,63.612700,141.300000,63.567800,142.068000,63.492900L141.776000,60.507100C141.068000,60.576200,140.549000,60.567300,140.216000,60.478600C140.144000,60.459400,140.095000,60.439900,140.064000,60.424700C140.049000,60.417300,140.039000,60.411300,140.033000,60.407200C140.027000,60.403200,140.024000,60.400900,140.024000,60.400800C140.024000,60.400800,140.025000,60.402000,140.028000,60.404500C140.030000,60.407100,140.031000,60.409400,140.032000,60.410800C140.035000,60.415000,140.028000,60.406200,140.019000,60.374500L137.129000,61.177500ZM142.060000,63.493600C144.541000,63.263900,146.404000,61.847700,146.977000,59.555800L144.067000,58.828200C143.848000,59.704300,143.191000,60.376100,141.784000,60.506400L142.060000,63.493600ZM146.977000,59.555800C147.315000,58.205000,147.433000,57.576300,147.620000,56.230400L144.648000,55.817600C144.475000,57.063700,144.377000,57.587000,144.067000,58.828200L146.977000,59.555800ZM174.542000,56.312000L173.054000,56.500200L173.057000,56.526200L173.062000,56.552100L174.542000,56.312000ZM172.634000,47.240000L171.190000,47.645700L171.192000,47.652100L172.634000,47.240000ZM169.754000,39.716000L171.102000,39.058400L171.099000,39.051800L171.096000,39.045200L169.754000,39.716000ZM165.938000,36.836000L165.938000,38.336000L165.952000,38.336000L165.966000,38.335700L165.938000,36.836000ZM160.610000,40.076000L159.511000,39.055300L159.509000,39.057400L160.610000,40.076000ZM154.706000,47.744000L155.933000,48.606800L155.939000,48.598200L155.945000,48.589600L154.706000,47.744000ZM148.946000,57.608000L150.344000,58.152800L150.346000,58.147600L148.946000,57.608000ZM150.674000,62.108000L150.164000,63.518600L150.171000,63.521200L150.674000,62.108000ZM156.614000,60.020000L155.389000,59.155000L155.381000,59.166300L155.373000,59.177700L156.614000,60.020000ZM157.334000,58.868000L158.621000,59.639800L158.627000,59.628500L157.334000,58.868000ZM161.546000,58.436000L161.518000,56.936300L161.511000,56.936400L161.504000,56.936600L161.546000,58.436000ZM165.254000,58.256000L165.342000,59.753400L165.392000,59.750500L165.440000,59.744400L165.254000,58.256000ZM165.722000,58.544000L167.178000,58.180200L167.178000,58.180200L165.722000,58.544000ZM166.046000,59.984000L164.594000,60.360400L164.596000,60.367100L166.046000,59.984000ZM171.266000,62.108000L170.817000,60.676900L170.804000,60.681200L171.266000,62.108000ZM163.886000,51.884000L163.652000,50.402300L163.640000,50.404400L163.886000,51.884000ZM161.762000,51.956000L161.564000,53.442900L161.576000,53.444400L161.762000,51.956000ZM161.294000,50.948000L162.636000,51.618800L162.636000,51.618800L161.294000,50.948000ZM162.662000,48.860000L161.541000,47.863400L161.533000,47.872200L162.662000,48.860000ZM164.210000,48.896000L162.832000,49.486900L162.841000,49.508800L162.851000,49.530300L164.210000,48.896000ZM164.750000,50.768000L163.261000,50.943300L163.263000,50.966900L163.267000,50.990500L164.750000,50.768000ZM176.030000,56.123800C175.623000,52.898500,174.884000,49.653900,174.077000,46.827900L171.192000,47.652100C171.969000,50.370100,172.670000,53.461500,173.054000,56.500200L176.030000,56.123800ZM174.078000,46.834400C173.146000,43.515400,171.847000,40.583700,171.102000,39.058400L168.406000,40.373600C169.102000,41.800300,170.323000,44.556600,171.190000,47.645600L174.078000,46.834400ZM171.096000,39.045200C170.551000,37.956100,169.970000,36.956700,169.117000,36.278500C168.180000,35.532900,167.108000,35.314500,165.911000,35.336200L165.966000,38.335700C166.749000,38.321500,167.045000,38.463100,167.250000,38.626500C167.540000,38.857300,167.877000,39.315900,168.413000,40.386800L171.096000,39.045200ZM165.938000,35.336000C164.748000,35.336000,163.719000,35.573000,162.648000,36.235000C161.658000,36.846700,160.684000,37.792600,159.511000,39.055300L161.710000,41.096700C162.877000,39.839400,163.613000,39.165300,164.225000,38.787000C164.756000,38.459000,165.221000,38.336000,165.938000,38.336000L165.938000,35.336000ZM159.509000,39.057400C158.106000,40.574800,155.034000,44.602600,153.467000,46.898400L155.945000,48.589600C157.474000,46.349400,160.451000,42.457200,161.711000,41.094600L159.509000,39.057400ZM153.479000,46.881200C151.866000,49.176000,148.774000,53.886400,147.547000,57.068400L150.346000,58.147600C151.423000,55.353600,154.307000,50.920000,155.933000,48.606800L153.479000,46.881200ZM147.549000,57.063200C147.018000,58.424500,146.984000,59.801900,147.479000,60.998500C147.976000,62.198200,148.950000,63.079300,150.164000,63.518600L151.185000,60.697400C150.707000,60.524700,150.403000,60.217800,150.251000,59.851500C150.099000,59.482100,150.047000,58.915500,150.344000,58.152800L147.549000,57.063200ZM150.171000,63.521200C152.982000,64.521500,156.130000,63.404900,157.856000,60.862300L155.373000,59.177700C154.362000,60.667100,152.615000,61.206500,151.177000,60.694800L150.171000,63.521200ZM157.840000,60.885000C158.056000,60.578800,158.159000,60.427400,158.265000,60.249200C158.307000,60.177500,158.357000,60.089400,158.401000,60.013200C158.451000,59.926700,158.518000,59.811100,158.621000,59.639700L156.048000,58.096300C155.935000,58.284900,155.858000,58.416800,155.800000,58.518100C155.736000,58.629900,155.713000,58.670000,155.684000,58.719800C155.646000,58.784600,155.605000,58.849200,155.389000,59.155000L157.840000,60.885000ZM158.627000,59.628500C158.667000,59.561700,158.663000,59.585100,158.604000,59.639300C158.572000,59.668300,158.527000,59.703900,158.467000,59.738500C158.406000,59.773500,158.342000,59.801200,158.277000,59.821000C158.150000,59.859800,158.059000,59.856600,158.073000,59.856700C158.084000,59.856700,158.098000,59.857200,158.149000,59.859300C158.191000,59.861000,158.263000,59.864000,158.342000,59.864000L158.342000,56.864000C158.332000,56.864000,158.316000,56.863600,158.272000,56.861800C158.237000,56.860400,158.166000,56.857200,158.094000,56.856700C157.942000,56.855700,157.689000,56.863700,157.400000,56.952000C156.745000,57.152000,156.327000,57.622400,156.041000,58.107500L158.627000,59.628500ZM158.342000,59.864000C158.609000,59.864000,159.028000,59.888000,159.642000,59.912300C160.218000,59.935200,160.907000,59.954900,161.589000,59.935400L161.504000,56.936600C160.926000,56.953100,160.318000,56.936800,159.761000,56.914700C159.241000,56.894000,158.688000,56.864000,158.342000,56.864000L158.342000,59.864000ZM161.575000,59.935700C163.523000,59.899000,164.770000,59.787100,165.342000,59.753400L165.166000,56.758600C164.514000,56.796900,163.386000,56.901000,161.518000,56.936300L161.575000,59.935700ZM165.440000,59.744400C165.485000,59.738800,165.441000,59.747600,165.357000,59.743100C165.265000,59.738100,165.061000,59.713800,164.834000,59.585900C164.592000,59.449600,164.441000,59.263400,164.357000,59.116600C164.319000,59.049800,164.296000,58.994800,164.284000,58.962300C164.273000,58.929700,164.268000,58.909400,164.267000,58.907800L167.178000,58.180200C167.122000,57.958300,166.948000,57.333200,166.305000,56.971100C165.752000,56.660000,165.178000,56.753900,165.068000,56.767600L165.440000,59.744400ZM164.267000,58.907800C164.309000,59.073500,164.315000,59.125600,164.358000,59.348800C164.401000,59.568400,164.462000,59.850500,164.594000,60.360400L167.498000,59.607600C167.379000,59.145500,167.332000,58.923600,167.303000,58.774200C167.274000,58.628400,167.244000,58.446500,167.178000,58.180200L164.267000,58.907800ZM164.596000,60.367100C164.965000,61.764700,165.917000,62.874600,167.242000,63.458200C168.551000,64.035300,170.119000,64.057000,171.729000,63.534800L170.804000,60.681200C169.750000,61.023000,168.959000,60.936700,168.451000,60.712800C167.958000,60.495400,167.631000,60.111300,167.497000,59.600900L164.596000,60.367100ZM171.716000,63.539000C175.072000,62.484300,176.552000,59.334800,176.023000,56.071900L173.062000,56.552100C173.397000,58.617200,172.501000,60.147700,170.817000,60.677000L171.716000,63.539000ZM163.640000,50.404400C163.103000,50.493900,162.351000,50.518000,161.948000,50.467600L161.576000,53.444400C162.325000,53.538000,163.374000,53.490100,164.133000,53.363600L163.640000,50.404400ZM161.961000,50.469200C161.890000,50.459700,161.921000,50.456200,162.001000,50.490200C162.088000,50.527700,162.303000,50.641400,162.467000,50.906800C162.639000,51.185400,162.645000,51.451000,162.628000,51.583500C162.615000,51.693100,162.588000,51.715700,162.636000,51.618800L159.953000,50.277200C159.737000,50.707700,159.376000,51.611500,159.915000,52.483200C160.408000,53.281200,161.289000,53.406100,161.564000,53.442800L161.961000,50.469200ZM162.636000,51.618800C162.920000,51.051500,163.393000,50.302900,163.791000,49.847800L161.533000,47.872200C160.924000,48.569100,160.317000,49.548500,159.953000,50.277200L162.636000,51.618800ZM163.783000,49.856500C163.848000,49.783800,163.878000,49.769400,163.860000,49.780000C163.843000,49.789900,163.737000,49.848300,163.555000,49.851300C163.351000,49.854600,163.148000,49.785200,162.993000,49.665600C162.857000,49.559800,162.822000,49.464800,162.832000,49.486900L165.589000,48.305100C165.273000,47.567100,164.581000,46.834100,163.506000,46.851700C162.619000,46.866200,161.947000,47.407100,161.541000,47.863500L163.783000,49.856500ZM162.851000,49.530300C163.041000,49.938200,163.209000,50.503900,163.261000,50.943300L166.240000,50.592700C166.148000,49.808100,165.883000,48.933800,165.570000,48.261700L162.851000,49.530300ZM163.267000,50.990500C163.293000,51.165200,163.210000,50.903300,163.456000,50.604000C163.565000,50.471400,163.677000,50.411600,163.721000,50.392200C163.757000,50.376500,163.747000,50.387500,163.652000,50.402400L164.120000,53.365600C164.571000,53.294500,165.274000,53.117000,165.775000,52.507000C166.308000,51.856700,166.316000,51.090800,166.234000,50.545500L163.267000,50.990500ZM212.471000,56.960000L210.984000,57.155700L210.985000,57.167800L210.987000,57.179800L212.471000,56.960000ZM211.031000,52.856000L212.426000,52.304500L212.421000,52.293500L212.417000,52.282500L211.031000,52.856000ZM208.763000,47.672000L207.881000,46.458900L206.894000,47.176500L207.395000,48.288700L208.763000,47.672000ZM209.987000,46.700000L209.067000,45.515100L209.047000,45.531000L209.027000,45.547700L209.987000,46.700000ZM214.703000,41.912000L213.386000,41.193700L213.380000,41.204200L213.375000,41.214700L214.703000,41.912000ZM214.775000,38.456000L213.448000,39.154600L213.452000,39.163200L213.457000,39.171600L214.775000,38.456000ZM209.591000,38.276000L210.525000,39.449600L210.534000,39.442400L210.543000,39.435100L209.591000,38.276000ZM203.651000,43.388000L202.189000,43.053800L201.171000,47.504100L204.630000,44.524400L203.651000,43.388000ZM204.299000,40.076000L205.789000,40.247900L205.790000,40.236600L205.791000,40.225300L204.299000,40.076000ZM200.843000,36.728000L200.789000,38.227000L200.802000,38.227500L200.815000,38.227700L200.843000,36.728000ZM195.839000,39.824000L194.433000,39.299900L194.433000,39.301500L195.839000,39.824000ZM191.987000,59.192000L190.487000,59.204800L190.487000,59.212300L190.487000,59.219800L191.987000,59.192000ZM195.659000,62.180000L195.659000,60.680000L195.644000,60.680000L195.628000,60.680300L195.659000,62.180000ZM200.339000,59.372000L201.740000,59.907100L201.741000,59.906000L200.339000,59.372000ZM201.779000,52.460000L203.208000,52.005200L200.298000,52.219400L201.779000,52.460000ZM202.715000,55.196000L201.301000,55.697600L201.305000,55.708600L202.715000,55.196000ZM204.875000,60.380000L206.221000,59.718300L206.217000,59.709200L204.875000,60.380000ZM210.131000,61.460000L209.482000,60.107700L209.471000,60.112900L210.131000,61.460000ZM213.958000,56.764300C213.845000,55.905500,213.589000,55.136500,213.308000,54.425000C213.169000,54.071000,213.016000,53.714200,212.868000,53.368900C212.718000,53.017400,212.570000,52.670200,212.426000,52.304500L209.636000,53.407500C209.797000,53.815800,209.960000,54.197600,210.109000,54.546900C210.261000,54.902500,210.396000,55.218500,210.518000,55.526000C210.759000,56.137500,210.917000,56.646500,210.984000,57.155700L213.958000,56.764300ZM212.417000,52.282500C211.976000,51.217000,210.961000,48.896500,210.130000,47.055300L207.395000,48.288700C208.221000,50.119500,209.222000,52.407000,209.645000,53.429500L212.417000,52.282500ZM209.645000,48.885100C210.085000,48.565400,210.514000,48.213600,210.947000,47.852300L209.027000,45.547700C208.596000,45.906400,208.233000,46.202600,207.881000,46.458900L209.645000,48.885100ZM210.907000,47.884900C213.654000,45.752200,215.112000,44.359800,216.031000,42.609300L213.375000,41.214700C212.782000,42.344200,211.792000,43.399800,209.067000,45.515100L210.907000,47.884900ZM216.020000,42.630300C216.409000,41.915700,216.702000,41.137700,216.737000,40.271400C216.773000,39.389300,216.536000,38.555700,216.093000,37.740400L213.457000,39.171600C213.698000,39.616300,213.749000,39.916700,213.740000,40.150600C213.730000,40.400300,213.644000,40.720200,213.386000,41.193700L216.020000,42.630300ZM216.102000,37.757400C215.444000,36.507500,214.117000,35.849600,212.796000,35.737400C211.435000,35.621800,209.935000,36.051700,208.639000,37.116900L210.543000,39.435100C211.262000,38.844300,211.995000,38.680100,212.542000,38.726600C213.128000,38.776400,213.385000,39.036500,213.448000,39.154600L216.102000,37.757400ZM208.657000,37.102400C206.865000,38.528700,204.957000,40.283000,202.672000,42.251600L204.630000,44.524400C207.025000,42.461000,208.789000,40.831300,210.525000,39.449600L208.657000,37.102400ZM205.113000,43.722200C205.396000,42.485400,205.670000,41.282600,205.789000,40.247900L202.809000,39.904100C202.712000,40.741400,202.482000,41.770600,202.189000,43.053800L205.113000,43.722200ZM205.791000,40.225300C205.947000,38.669000,205.386000,37.360100,204.364000,36.472700C203.391000,35.628100,202.107000,35.251100,200.871000,35.228300L200.815000,38.227700C201.523000,38.240900,202.075000,38.457900,202.398000,38.738300C202.671000,38.975900,202.867000,39.323000,202.806000,39.926700L205.791000,40.225300ZM200.896000,35.229000C198.408000,35.140100,195.506000,36.422700,194.433000,39.299900L197.244000,40.348100C197.755000,38.977300,199.246000,38.171900,200.789000,38.227000L200.896000,35.229000ZM194.433000,39.301500C193.404000,42.071200,192.413000,45.947200,191.685000,49.636200C190.961000,53.306200,190.468000,56.939600,190.487000,59.204800L193.487000,59.179200C193.470000,57.232400,193.913000,53.845800,194.629000,50.216800C195.341000,46.606800,196.294000,42.904800,197.245000,40.346500L194.433000,39.301500ZM190.487000,59.219800C190.515000,60.723600,191.272000,61.892800,192.287000,62.637900C193.273000,63.361300,194.513000,63.703700,195.689000,63.679700L195.628000,60.680300C195.041000,60.692300,194.462000,60.512700,194.062000,60.219100C193.692000,59.947200,193.495000,59.604400,193.487000,59.164200L190.487000,59.219800ZM195.659000,63.680000C197.787000,63.680000,200.673000,62.701500,201.740000,59.907100L198.938000,58.836900C198.493000,60.002500,197.131000,60.680000,195.659000,60.680000L195.659000,63.680000ZM201.741000,59.906000C202.386000,58.212700,202.806000,55.493300,203.259000,52.700600L200.298000,52.219400C199.816000,55.186700,199.444000,57.507300,198.937000,58.838000L201.741000,59.906000ZM200.349000,52.914800C200.610000,53.732200,200.905000,54.580200,201.301000,55.697600L204.129000,54.694400C203.733000,53.579800,203.452000,52.771800,203.208000,52.005200L200.349000,52.914800ZM201.305000,55.708600C202.179000,58.111300,202.669000,59.322700,203.533000,61.050800L206.217000,59.709200C205.425000,58.125300,204.979000,57.032700,204.125000,54.683400L201.305000,55.708600ZM203.529000,61.041700C204.304000,62.618000,205.657000,63.366500,207.059000,63.530400C208.385000,63.685300,209.731000,63.326300,210.791000,62.807100L209.471000,60.112900C208.767000,60.457700,208.006000,60.620700,207.407000,60.550600C206.883000,60.489500,206.490000,60.266000,206.221000,59.718300L203.529000,61.041700ZM210.780000,62.812300C213.206000,61.647600,214.333000,59.296800,213.955000,56.740200L210.987000,57.179800C211.184000,58.511200,210.655000,59.544400,209.482000,60.107700L210.780000,62.812300ZM241.079000,56.312000L239.591000,56.500200L239.594000,56.526200L239.598000,56.552100L241.079000,56.312000ZM239.171000,47.240000L237.727000,47.645700L237.729000,47.652100L239.171000,47.240000ZM236.291000,39.716000L237.639000,39.058400L237.636000,39.051800L237.633000,39.045200L236.291000,39.716000ZM232.475000,36.836000L232.475000,38.336000L232.489000,38.336000L232.502000,38.335700L232.475000,36.836000ZM227.147000,40.076000L226.048000,39.055300L226.046000,39.057400L227.147000,40.076000ZM221.243000,47.744000L222.470000,48.606800L222.476000,48.598200L222.482000,48.589600L221.243000,47.744000ZM215.483000,57.608000L216.881000,58.152800L216.883000,58.147600L215.483000,57.608000ZM217.211000,62.108000L216.701000,63.518600L216.708000,63.521200L217.211000,62.108000ZM223.151000,60.020000L221.926000,59.155000L221.918000,59.166300L221.910000,59.177700L223.151000,60.020000ZM223.871000,58.868000L225.157000,59.639800L225.164000,59.628500L223.871000,58.868000ZM228.083000,58.436000L228.055000,56.936300L228.048000,56.936400L228.040000,56.936600L228.083000,58.436000ZM231.791000,58.256000L231.879000,59.753400L231.928000,59.750500L231.977000,59.744400L231.791000,58.256000ZM232.259000,58.544000L233.714000,58.180200L233.714000,58.180200L232.259000,58.544000ZM232.583000,59.984000L231.131000,60.360400L231.133000,60.367100L232.583000,59.984000ZM237.803000,62.108000L237.353000,60.676900L237.340000,60.681200L237.803000,62.108000ZM230.423000,51.884000L230.189000,50.402300L230.176000,50.404400L230.423000,51.884000ZM228.299000,51.956000L228.101000,53.442900L228.113000,53.444400L228.299000,51.956000ZM227.831000,50.948000L229.173000,51.618800L229.173000,51.618800L227.831000,50.948000ZM229.199000,48.860000L228.078000,47.863400L228.070000,47.872200L229.199000,48.860000ZM230.747000,48.896000L229.368000,49.486900L229.378000,49.508800L229.388000,49.530300L230.747000,48.896000ZM231.287000,50.768000L229.797000,50.943300L229.800000,50.966900L229.804000,50.990500L231.287000,50.768000ZM242.567000,56.123800C242.159000,52.898500,241.421000,49.653900,240.613000,46.827900L237.729000,47.652100C238.505000,50.370100,239.207000,53.461500,239.591000,56.500200L242.567000,56.123800ZM240.615000,46.834400C239.683000,43.515400,238.383000,40.583700,237.639000,39.058400L234.943000,40.373600C235.639000,41.800300,236.859000,44.556600,237.727000,47.645600L240.615000,46.834400ZM237.633000,39.045200C237.088000,37.956100,236.507000,36.956700,235.654000,36.278500C234.717000,35.532900,233.645000,35.314500,232.448000,35.336200L232.502000,38.335700C233.285000,38.321500,233.581000,38.463100,233.787000,38.626500C234.077000,38.857300,234.414000,39.315900,234.949000,40.386800L237.633000,39.045200ZM232.475000,35.336000C231.284000,35.336000,230.256000,35.573000,229.185000,36.235000C228.195000,36.846700,227.220000,37.792600,226.048000,39.055300L228.246000,41.096700C229.414000,39.839400,230.149000,39.165300,230.762000,38.787000C231.292000,38.459000,231.758000,38.336000,232.475000,38.336000L232.475000,35.336000ZM226.046000,39.057400C224.642000,40.574800,221.571000,44.602600,220.004000,46.898400L222.482000,48.589600C224.011000,46.349400,226.988000,42.457200,228.248000,41.094600L226.046000,39.057400ZM220.016000,46.881200C218.402000,49.176000,215.310000,53.886400,214.083000,57.068400L216.883000,58.147600C217.960000,55.353600,220.844000,50.920000,222.470000,48.606800L220.016000,46.881200ZM214.086000,57.063200C213.555000,58.424500,213.521000,59.801900,214.016000,60.998500C214.512000,62.198200,215.486000,63.079300,216.701000,63.518600L217.721000,60.697400C217.244000,60.524700,216.940000,60.217800,216.788000,59.851500C216.635000,59.482100,216.583000,58.915500,216.881000,58.152800L214.086000,57.063200ZM216.708000,63.521200C219.519000,64.521500,222.667000,63.404900,224.392000,60.862300L221.910000,59.177700C220.899000,60.667100,219.152000,61.206500,217.714000,60.694800L216.708000,63.521200ZM224.377000,60.885000C224.593000,60.578800,224.696000,60.427400,224.802000,60.249200C224.844000,60.177500,224.894000,60.089400,224.938000,60.013200C224.987000,59.926700,225.055000,59.811100,225.157000,59.639700L222.585000,58.096300C222.472000,58.284900,222.395000,58.416800,222.337000,58.518100C222.272000,58.629900,222.250000,58.670000,222.221000,58.719800C222.182000,58.784600,222.141000,58.849200,221.926000,59.155000L224.377000,60.885000ZM225.164000,59.628500C225.203000,59.561700,225.200000,59.585100,225.141000,59.639300C225.109000,59.668300,225.063000,59.703900,225.004000,59.738500C224.943000,59.773500,224.878000,59.801200,224.813000,59.821000C224.687000,59.859800,224.596000,59.856600,224.610000,59.856700C224.621000,59.856700,224.634000,59.857200,224.686000,59.859300C224.728000,59.861000,224.800000,59.864000,224.879000,59.864000L224.879000,56.864000C224.868000,56.864000,224.852000,56.863600,224.808000,56.861800C224.774000,56.860400,224.703000,56.857200,224.630000,56.856700C224.478000,56.855700,224.226000,56.863700,223.937000,56.952000C223.282000,57.152000,222.863000,57.622400,222.578000,58.107500L225.164000,59.628500ZM224.879000,59.864000C225.146000,59.864000,225.565000,59.888000,226.179000,59.912300C226.755000,59.935200,227.444000,59.954900,228.126000,59.935400L228.040000,56.936600C227.462000,56.953100,226.855000,56.936800,226.298000,56.914700C225.777000,56.894000,225.225000,56.864000,224.879000,56.864000L224.879000,59.864000ZM228.111000,59.935700C230.059000,59.899000,231.307000,59.787100,231.879000,59.753400L231.703000,56.758600C231.051000,56.796900,229.923000,56.901000,228.055000,56.936300L228.111000,59.935700ZM231.977000,59.744400C232.022000,59.738800,231.977000,59.747600,231.894000,59.743100C231.801000,59.738100,231.598000,59.713800,231.371000,59.585900C231.128000,59.449600,230.978000,59.263400,230.894000,59.116600C230.855000,59.049800,230.833000,58.994800,230.821000,58.962300C230.809000,58.929700,230.804000,58.909400,230.804000,58.907800L233.714000,58.180200C233.659000,57.958300,233.485000,57.333200,232.841000,56.971100C232.288000,56.660000,231.715000,56.753900,231.605000,56.767600L231.977000,59.744400ZM230.804000,58.907800C230.845000,59.073500,230.851000,59.125600,230.895000,59.348800C230.938000,59.568400,230.999000,59.850500,231.131000,60.360400L234.035000,59.607600C233.915000,59.145500,233.868000,58.923600,233.839000,58.774200C233.811000,58.628400,233.781000,58.446500,233.714000,58.180200L230.804000,58.907800ZM231.133000,60.367100C231.502000,61.764700,232.454000,62.874600,233.778000,63.458200C235.088000,64.035300,236.656000,64.057000,238.266000,63.534800L237.340000,60.681200C236.286000,61.023000,235.496000,60.936700,234.988000,60.712800C234.494000,60.495400,234.168000,60.111300,234.033000,59.600900L231.133000,60.367100ZM238.253000,63.539000C241.609000,62.484300,243.089000,59.334800,242.560000,56.071900L239.598000,56.552100C239.933000,58.617200,239.037000,60.147700,237.353000,60.677000L238.253000,63.539000ZM230.176000,50.404400C229.639000,50.493900,228.888000,50.518000,228.485000,50.467600L228.113000,53.444400C228.862000,53.538000,229.911000,53.490100,230.670000,53.363600L230.176000,50.404400ZM228.497000,50.469200C228.427000,50.459700,228.458000,50.456200,228.537000,50.490200C228.625000,50.527700,228.840000,50.641400,229.004000,50.906800C229.176000,51.185400,229.181000,51.451000,229.165000,51.583500C229.151000,51.693100,229.124000,51.715700,229.173000,51.618800L226.489000,50.277200C226.274000,50.707700,225.913000,51.611500,226.451000,52.483200C226.944000,53.281200,227.825000,53.406100,228.101000,53.442800L228.497000,50.469200ZM229.173000,51.618800C229.456000,51.051500,229.930000,50.302900,230.328000,49.847800L228.070000,47.872200C227.460000,48.569100,226.854000,49.548500,226.489000,50.277200L229.173000,51.618800ZM230.320000,49.856500C230.385000,49.783800,230.415000,49.769400,230.397000,49.780000C230.380000,49.789900,230.274000,49.848300,230.092000,49.851300C229.888000,49.854600,229.684000,49.785200,229.530000,49.665600C229.394000,49.559800,229.359000,49.464800,229.368000,49.486900L232.126000,48.305100C231.809000,47.567100,231.118000,46.834100,230.043000,46.851700C229.156000,46.866200,228.484000,47.407100,228.078000,47.863500L230.320000,49.856500ZM229.388000,49.530300C229.578000,49.938200,229.746000,50.503900,229.797000,50.943300L232.777000,50.592700C232.684000,49.808100,232.420000,48.933800,232.106000,48.261700L229.388000,49.530300ZM229.804000,50.990500C229.830000,51.165200,229.747000,50.903300,229.992000,50.604000C230.101000,50.471400,230.214000,50.411600,230.258000,50.392200C230.294000,50.376500,230.283000,50.387500,230.189000,50.402400L230.657000,53.365600C231.108000,53.294500,231.811000,53.117000,232.312000,52.507000C232.845000,51.856700,232.852000,51.090800,232.770000,50.545500L229.804000,50.990500ZM264.796000,37.880000L264.132000,39.225100L264.136000,39.227300L264.796000,37.880000ZM254.608000,37.088000L254.420000,35.599700L254.407000,35.601500L254.608000,37.088000ZM247.336000,42.596000L245.920000,42.100500L245.915000,42.113600L247.336000,42.596000ZM244.204000,57.968000L242.725000,57.714800L242.724000,57.724200L244.204000,57.968000ZM252.016000,59.696000L253.434000,60.185400L253.437000,60.174700L253.441000,60.164000L252.016000,59.696000ZM253.492000,54.872000L254.943000,54.491000L253.547000,49.178200L252.049000,54.462800L253.492000,54.872000ZM255.328000,60.380000L253.966000,61.010200L253.972000,61.022100L255.328000,60.380000ZM260.764000,61.136000L261.542000,62.418200L261.561000,62.406600L261.580000,62.394400L260.764000,61.136000ZM263.068000,57.140000L264.527000,56.792600L264.523000,56.774300L264.518000,56.756200L263.068000,57.140000ZM260.836000,51.308000L260.495000,49.847200L258.693000,50.267800L259.477000,51.943900L260.836000,51.308000ZM267.856000,46.340000L269.230000,46.940500L269.234000,46.932100L269.238000,46.923700L267.856000,46.340000ZM255.940000,42.920000L256.932000,44.044800L256.934000,44.043500L255.940000,42.920000ZM259.720000,44.396000L261.213000,44.534300L261.215000,44.519600L261.216000,44.504800L259.720000,44.396000ZM265.460000,36.534900C262.252000,34.951800,258.428000,35.094200,254.420000,35.599800L254.795000,38.576200C258.779000,38.073800,261.796000,38.072200,264.132000,39.225100L265.460000,36.534900ZM254.407000,35.601500C252.188000,35.901300,250.356000,36.645300,248.917000,37.791000C247.476000,38.938600,246.505000,40.429000,245.920000,42.100500L248.752000,43.091500C249.175000,41.883000,249.842000,40.889400,250.786000,40.138000C251.732000,39.384700,253.031000,38.814700,254.809000,38.574500L254.407000,35.601500ZM245.915000,42.113600C244.570000,46.076300,243.609000,52.554900,242.725000,57.714800L245.682000,58.221200C246.599000,52.869100,247.510000,46.747700,248.756000,43.078400L245.915000,42.113600ZM242.724000,57.724200C242.424000,59.542200,242.719000,61.115200,243.602000,62.292400C244.481000,63.463600,245.783000,64.027800,247.068000,64.146200C249.531000,64.373200,252.467000,62.987000,253.434000,60.185400L250.598000,59.206600C250.161000,60.473000,248.687000,61.282800,247.343000,61.158800C246.724000,61.101700,246.273000,60.853600,246.001000,60.491500C245.734000,60.135300,245.479000,59.453800,245.684000,58.211800L242.724000,57.724200ZM253.441000,60.164000C253.843000,58.940500,254.216000,57.720500,254.488000,56.808600C254.624000,56.352000,254.736000,55.971300,254.813000,55.704300C254.852000,55.570800,254.882000,55.465600,254.903000,55.393600C254.913000,55.357500,254.921000,55.329800,254.926000,55.310800C254.929000,55.301400,254.931000,55.294100,254.933000,55.289200C254.933000,55.286700,254.934000,55.284800,254.934000,55.283500C254.934000,55.282800,254.935000,55.282300,254.935000,55.281900C254.935000,55.281700,254.935000,55.281600,254.935000,55.281500C254.935000,55.281400,254.935000,55.281400,254.935000,55.281300C254.935000,55.281300,254.935000,55.281200,253.492000,54.872000C252.049000,54.462800,252.049000,54.462700,252.049000,54.462700C252.049000,54.462700,252.049000,54.462700,252.049000,54.462800C252.049000,54.462800,252.049000,54.462900,252.049000,54.463000C252.049000,54.463200,252.048000,54.463500,252.048000,54.464000C252.048000,54.465100,252.048000,54.466600,252.047000,54.468800C252.046000,54.473100,252.044000,54.479700,252.041000,54.488500C252.036000,54.506100,252.029000,54.532500,252.019000,54.567100C251.999000,54.636400,251.970000,54.738500,251.932000,54.868800C251.856000,55.129400,251.747000,55.502500,251.613000,55.950400C251.346000,56.847500,250.981000,58.039500,250.591000,59.228000L253.441000,60.164000ZM253.492000,54.872000C252.041000,55.253000,252.041000,55.253100,252.041000,55.253200C252.041000,55.253300,252.041000,55.253400,252.041000,55.253500C252.041000,55.253700,252.041000,55.253900,252.041000,55.254300C252.041000,55.254900,252.042000,55.255700,252.042000,55.256800C252.042000,55.258900,252.043000,55.261900,252.044000,55.265700C252.046000,55.273300,252.049000,55.284200,252.053000,55.298400C252.060000,55.326600,252.071000,55.367600,252.086000,55.420100C252.114000,55.525100,252.155000,55.676000,252.207000,55.862800C252.312000,56.235900,252.460000,56.754100,252.638000,57.335300C252.986000,58.475800,253.470000,59.937700,253.967000,61.010200L256.689000,59.749800C256.285000,58.878300,255.851000,57.586200,255.507000,56.458700C255.338000,55.905900,255.196000,55.411600,255.097000,55.055700C255.047000,54.878000,255.008000,54.735300,254.982000,54.637800C254.969000,54.589000,254.959000,54.551500,254.952000,54.526600C254.949000,54.514200,254.946000,54.504900,254.945000,54.498900C254.944000,54.495900,254.943000,54.493700,254.943000,54.492400C254.943000,54.491700,254.943000,54.491300,254.943000,54.491000C254.943000,54.490900,254.943000,54.490900,254.943000,54.490900C254.943000,54.490800,254.943000,54.490900,254.943000,54.490900C254.943000,54.490900,254.943000,54.491000,253.492000,54.872000ZM253.972000,61.022100C254.709000,62.578300,256.064000,63.354100,257.525000,63.480900C258.909000,63.601000,260.341000,63.147400,261.542000,62.418200L259.985000,59.853800C259.170000,60.348600,258.370000,60.543000,257.784000,60.492100C257.274000,60.447900,256.918000,60.233700,256.683000,59.737900L253.972000,61.022100ZM261.580000,62.394400C262.394000,61.866300,263.223000,61.102300,263.809000,60.196200C264.389000,59.301100,264.837000,58.093500,264.527000,56.792600L261.609000,57.487400C261.659000,57.698500,261.621000,58.056900,261.291000,58.565800C260.969000,59.063700,260.465000,59.541700,259.947000,59.877600L261.580000,62.394400ZM264.518000,56.756200C264.167000,55.432000,263.578000,53.898900,263.095000,52.732200C262.850000,52.141000,262.626000,51.628800,262.463000,51.263800C262.382000,51.081100,262.315000,50.934800,262.269000,50.833500C262.246000,50.782800,262.227000,50.743300,262.215000,50.716000C262.208000,50.702400,262.203000,50.691900,262.200000,50.684500C262.198000,50.680800,262.197000,50.677900,262.196000,50.675800C262.196000,50.674800,262.195000,50.674000,262.195000,50.673400C262.195000,50.673000,262.195000,50.672800,262.195000,50.672600C262.194000,50.672500,262.194000,50.672300,262.194000,50.672300C262.194000,50.672200,262.194000,50.672100,260.836000,51.308000C259.477000,51.943900,259.477000,51.943800,259.477000,51.943800C259.477000,51.943800,259.477000,51.943700,259.477000,51.943700C259.477000,51.943700,259.477000,51.943800,259.477000,51.943900C259.477000,51.944100,259.477000,51.944500,259.478000,51.945100C259.478000,51.946300,259.479000,51.948300,259.481000,51.951100C259.483000,51.956700,259.487000,51.965400,259.493000,51.977200C259.504000,52.000700,259.520000,52.036300,259.541000,52.082900C259.584000,52.176200,259.646000,52.313400,259.724000,52.486200C259.878000,52.832200,260.091000,53.319000,260.323000,53.879800C260.794000,55.017100,261.320000,56.400000,261.618000,57.523800L264.518000,56.756200ZM260.836000,51.308000C261.177000,52.768800,261.177000,52.768700,261.177000,52.768600C261.178000,52.768500,261.178000,52.768400,261.179000,52.768300C261.179000,52.768100,261.180000,52.768000,261.181000,52.767700C261.183000,52.767300,261.185000,52.766800,261.187000,52.766200C261.192000,52.765100,261.198000,52.763600,261.206000,52.761800C261.221000,52.758100,261.241000,52.753200,261.266000,52.746900C261.315000,52.734300,261.384000,52.716200,261.471000,52.692400C261.643000,52.644800,261.884000,52.573900,262.176000,52.477100C262.758000,52.284400,263.554000,51.984800,264.411000,51.555400C266.072000,50.722200,268.210000,49.276500,269.230000,46.940500L266.481000,45.739500C265.882000,47.111500,264.509000,48.149800,263.066000,48.873600C262.370000,49.222600,261.714000,49.469800,261.233000,49.629300C260.994000,49.708600,260.801000,49.765100,260.671000,49.800800C260.607000,49.818700,260.558000,49.831300,260.528000,49.839000C260.513000,49.842800,260.502000,49.845400,260.497000,49.846800C260.494000,49.847400,260.492000,49.847800,260.492000,49.847900C260.492000,49.847900,260.492000,49.847900,260.493000,49.847800C260.493000,49.847700,260.493000,49.847700,260.493000,49.847600C260.494000,49.847500,260.494000,49.847400,260.494000,49.847400C260.495000,49.847300,260.495000,49.847200,260.836000,51.308000ZM269.238000,46.923700C270.217000,44.604000,270.405000,42.471900,269.646000,40.600900C268.894000,38.748100,267.334000,37.452000,265.455000,36.532700L264.136000,39.227300C265.642000,39.964000,266.493000,40.809900,266.866000,41.729100C267.232000,42.630100,267.258000,43.900000,266.474000,45.756300L269.238000,46.923700ZM256.413000,45.379500C256.527000,45.507400,256.561000,45.616700,256.567000,45.636100C256.573000,45.658200,256.566000,45.641200,256.562000,45.571100C256.556000,45.427100,256.575000,45.202200,256.635000,44.930000C256.694000,44.663500,256.779000,44.408400,256.867000,44.212300C256.911000,44.115100,256.948000,44.048700,256.973000,44.010200C257.002000,43.964500,256.993000,43.990700,256.932000,44.044800L254.947000,41.795200C254.553000,42.143500,254.294000,42.620900,254.131000,42.981000C253.951000,43.382300,253.804000,43.836000,253.705000,44.285000C253.608000,44.728300,253.544000,45.225700,253.565000,45.706100C253.585000,46.129200,253.680000,46.821000,254.171000,47.372500L256.413000,45.379500ZM256.934000,44.043500C256.863000,44.106200,256.899000,44.042600,257.146000,44.009500C257.363000,43.980200,257.621000,43.993900,257.849000,44.054600C258.085000,44.117200,258.193000,44.202600,258.222000,44.233800C258.231000,44.244000,258.227000,44.242100,258.223000,44.231400C258.219000,44.219900,258.228000,44.232600,258.224000,44.287200L261.216000,44.504800C261.282000,43.588200,260.974000,42.789500,260.421000,42.193400C259.901000,41.632900,259.231000,41.317800,258.620000,41.155400C258.003000,40.991100,257.347000,40.955300,256.745000,41.036300C256.173000,41.113400,255.485000,41.319800,254.946000,41.796500L256.934000,44.043500ZM258.226000,44.257700C258.225000,44.264600,258.224000,44.278800,258.206000,44.309700C258.185000,44.345300,258.140000,44.405400,258.052000,44.482000C257.865000,44.643200,257.565000,44.808300,257.186000,44.933100C256.810000,45.056500,256.446000,45.111400,256.189000,45.113400C256.060000,45.114400,256.004000,45.101500,256.009000,45.102700C256.013000,45.103900,256.056000,45.114600,256.120000,45.147800C256.184000,45.180400,256.297000,45.249700,256.413000,45.379500L254.171000,47.372500C254.530000,47.776500,254.986000,47.938400,255.271000,48.010700C255.588000,48.091000,255.915000,48.115700,256.213000,48.113300C256.813000,48.108600,257.486000,47.992500,258.123000,47.782900C258.756000,47.574700,259.443000,47.244800,260.014000,46.751200C260.593000,46.250400,261.123000,45.512800,261.213000,44.534300L258.226000,44.257700ZM292.386000,56.312000L290.898000,56.500200L290.901000,56.526200L290.905000,56.552100L292.386000,56.312000ZM290.478000,47.240000L289.034000,47.645700L289.036000,47.652100L290.478000,47.240000ZM287.598000,39.716000L288.946000,39.058400L288.943000,39.051800L288.940000,39.045200L287.598000,39.716000ZM283.782000,36.836000L283.782000,38.336000L283.796000,38.336000L283.809000,38.335700L283.782000,36.836000ZM278.454000,40.076000L277.355000,39.055300L277.353000,39.057400L278.454000,40.076000ZM272.550000,47.744000L273.777000,48.606800L273.783000,48.598200L273.789000,48.589600L272.550000,47.744000ZM266.790000,57.608000L268.188000,58.152800L268.190000,58.147600L266.790000,57.608000ZM268.518000,62.108000L268.008000,63.518600L268.015000,63.521200L268.518000,62.108000ZM274.458000,60.020000L273.233000,59.155000L273.225000,59.166300L273.217000,59.177700L274.458000,60.020000ZM275.178000,58.868000L276.464000,59.639800L276.471000,59.628500L275.178000,58.868000ZM279.390000,58.436000L279.362000,56.936300L279.355000,56.936400L279.347000,56.936600L279.390000,58.436000ZM283.098000,58.256000L283.186000,59.753400L283.235000,59.750500L283.284000,59.744400L283.098000,58.256000ZM283.566000,58.544000L285.021000,58.180200L285.021000,58.180200L283.566000,58.544000ZM283.890000,59.984000L282.438000,60.360400L282.440000,60.367100L283.890000,59.984000ZM289.110000,62.108000L288.660000,60.676900L288.647000,60.681200L289.110000,62.108000ZM281.730000,51.884000L281.496000,50.402300L281.483000,50.404400L281.730000,51.884000ZM279.606000,51.956000L279.408000,53.442900L279.420000,53.444400L279.606000,51.956000ZM279.138000,50.948000L280.480000,51.618800L280.480000,51.618800L279.138000,50.948000ZM280.506000,48.860000L279.385000,47.863400L279.377000,47.872200L280.506000,48.860000ZM282.054000,48.896000L280.675000,49.486900L280.685000,49.508800L280.695000,49.530300L282.054000,48.896000ZM282.594000,50.768000L281.104000,50.943300L281.107000,50.966900L281.111000,50.990500L282.594000,50.768000ZM293.874000,56.123800C293.466000,52.898500,292.728000,49.653900,291.920000,46.827900L289.036000,47.652100C289.812000,50.370100,290.514000,53.461500,290.898000,56.500200L293.874000,56.123800ZM291.922000,46.834400C290.990000,43.515400,289.690000,40.583700,288.946000,39.058400L286.250000,40.373600C286.946000,41.800300,288.166000,44.556600,289.034000,47.645600L291.922000,46.834400ZM288.940000,39.045200C288.395000,37.956100,287.814000,36.956700,286.961000,36.278500C286.024000,35.532900,284.952000,35.314500,283.755000,35.336200L283.809000,38.335700C284.592000,38.321500,284.888000,38.463100,285.094000,38.626500C285.384000,38.857300,285.721000,39.315900,286.256000,40.386800L288.940000,39.045200ZM283.782000,35.336000C282.591000,35.336000,281.563000,35.573000,280.492000,36.235000C279.502000,36.846700,278.527000,37.792600,277.355000,39.055300L279.553000,41.096700C280.721000,39.839400,281.456000,39.165300,282.069000,38.787000C282.599000,38.459000,283.065000,38.336000,283.782000,38.336000L283.782000,35.336000ZM277.353000,39.057400C275.949000,40.574800,272.878000,44.602600,271.311000,46.898400L273.789000,48.589600C275.318000,46.349400,278.295000,42.457200,279.555000,41.094600L277.353000,39.057400ZM271.323000,46.881200C269.710000,49.176000,266.617000,53.886400,265.391000,57.068400L268.190000,58.147600C269.267000,55.353600,272.151000,50.920000,273.777000,48.606800L271.323000,46.881200ZM265.393000,57.063200C264.862000,58.424500,264.828000,59.801900,265.323000,60.998500C265.819000,62.198200,266.793000,63.079300,268.008000,63.518600L269.028000,60.697400C268.551000,60.524700,268.247000,60.217800,268.095000,59.851500C267.942000,59.482100,267.890000,58.915500,268.188000,58.152800L265.393000,57.063200ZM268.015000,63.521200C270.826000,64.521500,273.974000,63.404900,275.699000,60.862300L273.217000,59.177700C272.206000,60.667100,270.459000,61.206500,269.021000,60.694800L268.015000,63.521200ZM275.684000,60.885000C275.900000,60.578800,276.003000,60.427400,276.109000,60.249200C276.151000,60.177500,276.201000,60.089400,276.245000,60.013200C276.294000,59.926700,276.362000,59.811100,276.464000,59.639700L273.892000,58.096300C273.779000,58.284900,273.702000,58.416800,273.644000,58.518100C273.579000,58.629900,273.557000,58.670000,273.528000,58.719800C273.489000,58.784600,273.448000,58.849200,273.233000,59.155000L275.684000,60.885000ZM276.471000,59.628500C276.510000,59.561700,276.507000,59.585100,276.448000,59.639300C276.416000,59.668300,276.370000,59.703900,276.311000,59.738500C276.250000,59.773500,276.185000,59.801200,276.120000,59.821000C275.994000,59.859800,275.903000,59.856600,275.917000,59.856700C275.928000,59.856700,275.941000,59.857200,275.993000,59.859300C276.035000,59.861000,276.107000,59.864000,276.186000,59.864000L276.186000,56.864000C276.175000,56.864000,276.159000,56.863600,276.115000,56.861800C276.081000,56.860400,276.010000,56.857200,275.937000,56.856700C275.785000,56.855700,275.533000,56.863700,275.244000,56.952000C274.589000,57.152000,274.171000,57.622400,273.885000,58.107500L276.471000,59.628500ZM276.186000,59.864000C276.453000,59.864000,276.872000,59.888000,277.486000,59.912300C278.062000,59.935200,278.751000,59.954900,279.433000,59.935400L279.347000,56.936600C278.769000,56.953100,278.162000,56.936800,277.605000,56.914700C277.084000,56.894000,276.532000,56.864000,276.186000,56.864000L276.186000,59.864000ZM279.418000,59.935700C281.366000,59.899000,282.614000,59.787100,283.186000,59.753400L283.010000,56.758600C282.358000,56.796900,281.230000,56.901000,279.362000,56.936300L279.418000,59.935700ZM283.284000,59.744400C283.329000,59.738800,283.284000,59.747600,283.201000,59.743100C283.108000,59.738100,282.905000,59.713800,282.678000,59.585900C282.435000,59.449600,282.285000,59.263400,282.201000,59.116600C282.163000,59.049800,282.140000,58.994800,282.128000,58.962300C282.116000,58.929700,282.111000,58.909400,282.111000,58.907800L285.021000,58.180200C284.966000,57.958300,284.792000,57.333200,284.148000,56.971100C283.595000,56.660000,283.022000,56.753900,282.912000,56.767600L283.284000,59.744400ZM282.111000,58.907800C282.152000,59.073500,282.158000,59.125600,282.202000,59.348800C282.245000,59.568400,282.306000,59.850500,282.438000,60.360400L285.342000,59.607600C285.222000,59.145500,285.175000,58.923600,285.146000,58.774200C285.118000,58.628400,285.088000,58.446500,285.021000,58.180200L282.111000,58.907800ZM282.440000,60.367100C282.809000,61.764700,283.761000,62.874600,285.085000,63.458200C286.395000,64.035300,287.963000,64.057000,289.573000,63.534800L288.647000,60.681200C287.593000,61.023000,286.803000,60.936700,286.295000,60.712800C285.801000,60.495400,285.475000,60.111300,285.340000,59.600900L282.440000,60.367100ZM289.560000,63.539000C292.916000,62.484300,294.396000,59.334800,293.867000,56.071900L290.905000,56.552100C291.240000,58.617200,290.345000,60.147700,288.660000,60.677000L289.560000,63.539000ZM281.483000,50.404400C280.946000,50.493900,280.195000,50.518000,279.792000,50.467600L279.420000,53.444400C280.169000,53.538000,281.218000,53.490100,281.977000,53.363600L281.483000,50.404400ZM279.804000,50.469200C279.734000,50.459700,279.765000,50.456200,279.844000,50.490200C279.932000,50.527700,280.147000,50.641400,280.311000,50.906800C280.483000,51.185400,280.488000,51.451000,280.472000,51.583500C280.458000,51.693100,280.431000,51.715700,280.480000,51.618800L277.796000,50.277200C277.581000,50.707700,277.220000,51.611500,277.758000,52.483200C278.251000,53.281200,279.132000,53.406100,279.408000,53.442800L279.804000,50.469200ZM280.480000,51.618800C280.763000,51.051500,281.237000,50.302900,281.635000,49.847800L279.377000,47.872200C278.768000,48.569100,278.161000,49.548500,277.796000,50.277200L280.480000,51.618800ZM281.627000,49.856500C281.692000,49.783800,281.722000,49.769400,281.704000,49.780000C281.687000,49.789900,281.581000,49.848300,281.399000,49.851300C281.195000,49.854600,280.991000,49.785200,280.837000,49.665600C280.701000,49.559800,280.666000,49.464800,280.675000,49.486900L283.433000,48.305100C283.117000,47.567100,282.425000,46.834100,281.350000,46.851700C280.463000,46.866200,279.791000,47.407100,279.385000,47.863500L281.627000,49.856500ZM280.695000,49.530300C280.885000,49.938200,281.053000,50.503900,281.104000,50.943300L284.084000,50.592700C283.992000,49.808100,283.727000,48.933800,283.413000,48.261700L280.695000,49.530300ZM281.111000,50.990500C281.137000,51.165200,281.054000,50.903300,281.299000,50.604000C281.408000,50.471400,281.521000,50.411600,281.565000,50.392200C281.601000,50.376500,281.590000,50.387500,281.496000,50.402400L281.964000,53.365600C282.415000,53.294500,283.118000,53.117000,283.619000,52.507000C284.152000,51.856700,284.159000,51.090800,284.077000,50.545500L281.111000,50.990500Z" fill="rgb(27,21,33)" stroke="none" stroke-width="1"/></g><script><![CDATA[!function(t,n){"object"==typeof exports&&"undefined"!=typeof module?module.exports=n():"function"==typeof define&&define.amd?define(n):(t="undefined"!=typeof globalThis?globalThis:t||self).__SVGATOR_PLAYER__=n()}(this,(function(){"use strict";function t(n){return(t="function"==typeof Symbol&&"symbol"==typeof Symbol.iterator?function(t){return typeof t}:function(t){return t&&"function"==typeof Symbol&&t.constructor===Symbol&&t!==Symbol.prototype?"symbol":typeof t})(n)}function n(t,n){if(!(t instanceof n))throw new TypeError("Cannot call a class as a function")}function r(t,n){for(var r=0;r<n.length;r++){var e=n[r];e.enumerable=e.enumerable||!1,e.configurable=!0,"value"in e&&(e.writable=!0),Object.defineProperty(t,e.key,e)}}function e(t,n,e){return n&&r(t.prototype,n),e&&r(t,e),t}function i(t){return(i=Object.setPrototypeOf?Object.getPrototypeOf:function(t){return t.__proto__||Object.getPrototypeOf(t)})(t)}function o(t,n){return(o=Object.setPrototypeOf||function(t,n){return t.__proto__=n,t})(t,n)}function u(t,n){return!n||"object"!=typeof n&&"function"!=typeof n?function(t){if(void 0===t)throw new ReferenceError("this hasn't been initialised - super() hasn't been called");return t}(t):n}function a(t){var n=function(){if("undefined"==typeof Reflect||!Reflect.construct)return!1;if(Reflect.construct.sham)return!1;if("function"==typeof Proxy)return!0;try{return Boolean.prototype.valueOf.call(Reflect.construct(Boolean,[],(function(){}))),!0}catch(t){return!1}}();return function(){var r,e=i(t);if(n){var o=i(this).constructor;r=Reflect.construct(e,arguments,o)}else r=e.apply(this,arguments);return u(this,r)}}function l(t,n,r){return(l="undefined"!=typeof Reflect&&Reflect.get?Reflect.get:function(t,n,r){var e=function(t,n){for(;!Object.prototype.hasOwnProperty.call(t,n)&&null!==(t=i(t)););return t}(t,n);if(e){var o=Object.getOwnPropertyDescriptor(e,n);return o.get?o.get.call(r):o.value}})(t,n,r||t)}var f=Math.abs;function s(t){return t}function c(t,n,r){var e=1-r;return 3*r*e*(t*e+n*r)+r*r*r}function h(){var t=arguments.length>0&&void 0!==arguments[0]?arguments[0]:0,n=arguments.length>1&&void 0!==arguments[1]?arguments[1]:0,r=arguments.length>2&&void 0!==arguments[2]?arguments[2]:1,e=arguments.length>3&&void 0!==arguments[3]?arguments[3]:1;return t<0||t>1||r<0||r>1?null:f(t-n)<=1e-5&&f(r-e)<=1e-5?s:function(i){if(i<=0)return t>0?i*n/t:0===n&&r>0?i*e/r:0;if(i>=1)return r<1?1+(i-1)*(e-1)/(r-1):1===r&&t<1?1+(i-1)*(n-1)/(t-1):1;for(var o,u=0,a=1;u<a;){var l=c(t,r,o=(u+a)/2);if(f(i-l)<1e-5)break;l<i?u=o:a=o}return c(n,e,o)}}function v(){return 1}function y(t){return 1===t?1:0}function d(){var t=arguments.length>0&&void 0!==arguments[0]?arguments[0]:1,n=arguments.length>1&&void 0!==arguments[1]?arguments[1]:0;if(1===t){if(0===n)return y;if(1===n)return v}var r=1/t;return function(t){return t>=1?1:(t+=n*r)-t%r}}function g(t){var n=arguments.length>1&&void 0!==arguments[1]?arguments[1]:2;if(Number.isInteger(t))return t;var r=Math.pow(10,n);return Math.round(t*r)/r}var p=Math.PI/180;function m(t,n,r){return t>=.5?r:n}function b(t,n,r){return 0===t||n===r?n:t*(r-n)+n}function w(t,n,r){var e=b(t,n,r);return e<=0?0:e}function x(t,n,r){return 0===t?n:1===t?r:{x:b(t,n.x,r.x),y:b(t,n.y,r.y)}}function k(t,n,r){var e=function(t,n,r){return Math.round(b(t,n,r))}(t,n,r);return e<=0?0:e>=255?255:e}function A(t,n,r){return 0===t?n:1===t?r:{r:k(t,n.r,r.r),g:k(t,n.g,r.g),b:k(t,n.b,r.b),a:b(t,null==n.a?1:n.a,null==r.a?1:r.a)}}function _(t,n,r){if(0===t)return n;if(1===t)return r;var e=n.length;if(e!==r.length)return m(t,n,r);for(var i=[],o=0;o<e;o++)i.push(A(t,n[o],r[o]));return i}function S(t,n){for(var r=[],e=0;e<t;e++)r.push(n);return r}function O(t,n){if(--n<=0)return t;var r=(t=Object.assign([],t)).length;do{for(var e=0;e<r;e++)t.push(t[e])}while(--n>0);return t}var M,j=function(){function t(r){n(this,t),this.list=r,this.length=r.length}return e(t,[{key:"setAttribute",value:function(t,n){for(var r=this.list,e=0;e<this.length;e++)r[e].setAttribute(t,n)}},{key:"removeAttribute",value:function(t){for(var n=this.list,r=0;r<this.length;r++)n[r].removeAttribute(t)}},{key:"style",value:function(t,n){for(var r=this.list,e=0;e<this.length;e++)r[e].style[t]=n}}]),t}(),F=/-./g,P=function(t,n){return n.toUpperCase()};function B(t){return"function"==typeof t?t:m}function I(t){return t?"function"==typeof t?t:Array.isArray(t)?function(t){var n=arguments.length>1&&void 0!==arguments[1]?arguments[1]:s;if(!Array.isArray(t))return n;switch(t.length){case 1:return d(t[0])||n;case 2:return d(t[0],t[1])||n;case 4:return h(t[0],t[1],t[2],t[3])||n}return n}(t,null):function(t,n){var r=arguments.length>2&&void 0!==arguments[2]?arguments[2]:s;switch(t){case"linear":return s;case"steps":return d(n.steps||1,n.jump||0)||r;case"bezier":case"cubic-bezier":return h(n.x1||0,n.y1||0,n.x2||0,n.y2||0)||r}return r}(t.type,t.value,null):null}function R(t,n,r){var e=arguments.length>3&&void 0!==arguments[3]&&arguments[3],i=n.length-1;if(t<=n[0].t)return e?[0,0,n[0].v]:n[0].v;if(t>=n[i].t)return e?[i,1,n[i].v]:n[i].v;var o,u=n[0],a=null;for(o=1;o<=i;o++){if(!(t>n[o].t)){a=n[o];break}u=n[o]}return null==a?e?[i,1,n[i].v]:n[i].v:u.t===a.t?e?[o,1,a.v]:a.v:(t=(t-u.t)/(a.t-u.t),u.e&&(t=u.e(t)),e?[o,t,r(t,u.v,a.v)]:r(t,u.v,a.v))}function q(t,n){var r=arguments.length>2&&void 0!==arguments[2]?arguments[2]:null;return t&&t.length?"function"!=typeof n?null:("function"!=typeof r&&(r=null),function(e){var i=R(e,t,n);return null!=i&&r&&(i=r(i)),i}):null}function E(t,n){return t.t-n.t}function T(n,r,e,i,o){var u,a="@"===e[0],l="#"===e[0],f=M[e],s=m;switch(a?(u=e.substr(1),e=u.replace(F,P)):l&&(e=e.substr(1)),t(f)){case"function":if(s=f(i,o,R,I,e,a,r,n),l)return s;break;case"string":s=q(i,B(f));break;case"object":if((s=q(i,B(f.i),f.f))&&"function"==typeof f.u)return f.u(r,s,e,a,n)}return s?function(t,n,r){var e=arguments.length>3&&void 0!==arguments[3]&&arguments[3];if(e)return t instanceof j?function(e){return t.style(n,r(e))}:function(e){return t.style[n]=r(e)};if(Array.isArray(n)){var i=n.length;return function(e){var o=r(e);if(null==o)for(var u=0;u<i;u++)t[u].removeAttribute(n);else for(var a=0;a<i;a++)t[a].setAttribute(n,o)}}return function(e){var i=r(e);null==i?t.removeAttribute(n):t.setAttribute(n,i)}}(r,e,s,a):null}function N(n,r,e,i){if(!i||"object"!==t(i))return null;var o=null,u=null;return Array.isArray(i)?u=function(t){if(!t||!t.length)return null;for(var n=0;n<t.length;n++)t[n].e&&(t[n].e=I(t[n].e));return t.sort(E)}(i):(u=i.keys,o=i.data||null),u?T(n,r,e,u,o):null}function C(t,n,r){if(!r)return null;var e=[];for(var i in r)if(r.hasOwnProperty(i)){var o=N(t,n,i,r[i]);o&&e.push(o)}return e.length?e:null}function z(t,n){if(!n.duration||n.duration<0)return null;var r=function(t,n){if(!n)return null;var r=[];if(Array.isArray(n))for(var e=n.length,i=0;i<e;i++){var o=n[i];if(2===o.length){var u=null;if("string"==typeof o[0])u=t.getElementById(o[0]);else if(Array.isArray(o[0])){u=[];for(var a=0;a<o[0].length;a++)if("string"==typeof o[0][a]){var l=t.getElementById(o[0][a]);l&&u.push(l)}u=u.length?1===u.length?u[0]:new j(u):null}if(u){var f=C(t,u,o[1]);f&&(r=r.concat(f))}}}else for(var s in n)if(n.hasOwnProperty(s)){var c=t.getElementById(s);if(c){var h=C(t,c,n[s]);h&&(r=r.concat(h))}}return r.length?r:null}(t,n.elements);return r?function(t,n){var r=arguments.length>2&&void 0!==arguments[2]?arguments[2]:1/0,e=arguments.length>3&&void 0!==arguments[3]?arguments[3]:1,i=arguments.length>4&&void 0!==arguments[4]&&arguments[4],o=arguments.length>5&&void 0!==arguments[5]?arguments[5]:1,u=t.length,a=e>0?n:0;i&&r%2==0&&(a=n-a);var l=null;return function(f,s){var c=f%n,h=1+(f-c)/n;s*=e,i&&h%2==0&&(s=-s);var v=!1;if(h>r)c=a,v=!0,-1===o&&(c=e>0?0:n);else if(s<0&&(c=n-c),c===l)return!1;l=c;for(var y=0;y<u;y++)t[y](c);return v}}(r,n.duration,n.iterations||1/0,n.direction||1,!!n.alternate,n.fill||1):null}var L=function(){function t(r,e){var i=arguments.length>2&&void 0!==arguments[2]?arguments[2]:{};n(this,t),this._id=0,this._running=!1,this._rollingBack=!1,this._animations=r,this.duration=e.duration,this.alternate=e.alternate,this.fill=e.fill,this.iterations=e.iterations,this.direction=i.direction||1,this.speed=i.speed||1,this.fps=i.fps||100,this.offset=i.offset||0,this.rollbackStartOffset=0}return e(t,[{key:"_rollback",value:function(){var t=this,n=1/0,r=null;this.rollbackStartOffset=this.offset,this._rollingBack||(this._rollingBack=!0,this._running=!0);this._id=window.requestAnimationFrame((function e(i){if(t._rollingBack){null==r&&(r=i);var o=i-r,u=t.rollbackStartOffset-o,a=Math.round(u*t.speed);if(a>t.duration&&n!=1/0){var l=!!t.alternate&&a/t.duration%2>1,f=a%t.duration;a=(f+=l?t.duration:0)||t.duration}var s=t.fps?1e3/t.fps:0,c=Math.max(0,a);if(c<n-s){t.offset=c,n=c;for(var h=t._animations,v=h.length,y=0;y<v;y++)h[y](c,t.direction)}var d=!1;if(t.iterations>0&&-1===t.fill){var g=t.iterations*t.duration,p=g==a;a=p?0:a,t.offset=p?0:t.offset,d=a>g}a>0&&t.offset>=a&&!d?t._id=window.requestAnimationFrame(e):t.stop()}}))}},{key:"_start",value:function(){var t=this,n=arguments.length>0&&void 0!==arguments[0]?arguments[0]:0,r=-1/0,e=null,i={},o=function o(u){t._running=!0,null==e&&(e=u);var a=Math.round((u-e+n)*t.speed),l=t.fps?1e3/t.fps:0;if(a>r+l&&!t._rollingBack){t.offset=a,r=a;for(var f=t._animations,s=f.length,c=0,h=0;h<s;h++)i[h]?c++:(i[h]=f[h](a,t.direction),i[h]&&c++);if(c===s)return void t._stop()}t._id=window.requestAnimationFrame(o)};this._id=window.requestAnimationFrame(o)}},{key:"_stop",value:function(){this._id&&window.cancelAnimationFrame(this._id),this._running=!1,this._rollingBack=!1}},{key:"play",value:function(){!this._rollingBack&&this._running||(this._rollingBack=!1,this.rollbackStartOffset>this.duration&&(this.offset=this.rollbackStartOffset-(this.rollbackStartOffset-this.offset)%this.duration,this.rollbackStartOffset=0),this._start(this.offset))}},{key:"stop",value:function(){this._stop(),this.offset=0,this.rollbackStartOffset=0;var t=this.direction,n=this._animations;window.requestAnimationFrame((function(){for(var r=0;r<n.length;r++)n[r](0,t)}))}},{key:"reachedToEnd",value:function(){return this.iterations>0&&this.offset>=this.iterations*this.duration}},{key:"restart",value:function(){this._stop(),this.offset=0,this._start()}},{key:"pause",value:function(){this._stop()}},{key:"reverse",value:function(){this.direction=-this.direction}}],[{key:"build",value:function(n,r){return(n=function(t,n){if(M=n,!t||!t.root||!Array.isArray(t.animations))return null;for(var r=document.getElementsByTagName("svg"),e=!1,i=0;i<r.length;i++)if(r[i].id===t.root&&!r[i].svgatorAnimation){(e=r[i]).svgatorAnimation=!0;break}if(!e)return null;var o=t.animations.map((function(t){return z(e,t)})).filter((function(t){return!!t}));return o.length?{element:e,animations:o,animationSettings:t.animationSettings,options:t.options||void 0}:null}(n,r))?{el:n.element,options:n.options||{},player:new t(n.animations,n.animationSettings,n.options)}:null}}]),t}();!function(){for(var t=0,n=["ms","moz","webkit","o"],r=0;r<n.length&&!window.requestAnimationFrame;++r)window.requestAnimationFrame=window[n[r]+"RequestAnimationFrame"],window.cancelAnimationFrame=window[n[r]+"CancelAnimationFrame"]||window[n[r]+"CancelRequestAnimationFrame"];window.requestAnimationFrame||(window.requestAnimationFrame=function(n){var r=Date.now(),e=Math.max(0,16-(r-t)),i=window.setTimeout((function(){n(r+e)}),e);return t=r+e,i},window.cancelAnimationFrame=window.clearTimeout)}();var D=/\.0+$/g;function Q(t){return Number.isInteger(t)?t+"":t.toFixed(6).replace(D,"")}function U(t){var n=arguments.length>1&&void 0!==arguments[1]?arguments[1]:" ";return t&&t.length?t.map(Q).join(n):""}function V(t){return t?null==t.a||t.a>=1?"rgb("+t.r+","+t.g+","+t.b+")":"rgba("+t.r+","+t.g+","+t.b+","+t.a+")":"transparent"}var $={f:null,i:function(t,n,r){return 0===t?n:1===t?r:{x:w(t,n.x,r.x),y:w(t,n.y,r.y)}},u:function(t,n){return function(r){var e=n(r);t.setAttribute("rx",Q(e.x)),t.setAttribute("ry",Q(e.y))}}},G={f:null,i:function(t,n,r){return 0===t?n:1===t?r:{width:w(t,n.width,r.width),height:w(t,n.height,r.height)}},u:function(t,n){return function(r){var e=n(r);t.setAttribute("width",Q(e.width)),t.setAttribute("height",Q(e.height))}}},H=Math.sin,Y=Math.cos,Z=Math.acos,J=Math.asin,K=Math.tan,W=Math.atan2,X=Math.PI/180,tt=180/Math.PI,nt=Math.sqrt,rt=function(){function t(){var r=arguments.length>0&&void 0!==arguments[0]?arguments[0]:1,e=arguments.length>1&&void 0!==arguments[1]?arguments[1]:0,i=arguments.length>2&&void 0!==arguments[2]?arguments[2]:0,o=arguments.length>3&&void 0!==arguments[3]?arguments[3]:1,u=arguments.length>4&&void 0!==arguments[4]?arguments[4]:0,a=arguments.length>5&&void 0!==arguments[5]?arguments[5]:0;n(this,t),this.m=[r,e,i,o,u,a],this.i=null,this.w=null,this.s=null}return e(t,[{key:"determinant",get:function(){var t=this.m;return t[0]*t[3]-t[1]*t[2]}},{key:"isIdentity",get:function(){if(null===this.i){var t=this.m;this.i=1===t[0]&&0===t[1]&&0===t[2]&&1===t[3]&&0===t[4]&&0===t[5]}return this.i}},{key:"point",value:function(t,n){var r=this.m;return{x:r[0]*t+r[2]*n+r[4],y:r[1]*t+r[3]*n+r[5]}}},{key:"translateSelf",value:function(){var t=arguments.length>0&&void 0!==arguments[0]?arguments[0]:0,n=arguments.length>1&&void 0!==arguments[1]?arguments[1]:0;if(!t&&!n)return this;var r=this.m;return r[4]+=r[0]*t+r[2]*n,r[5]+=r[1]*t+r[3]*n,this.w=this.s=this.i=null,this}},{key:"rotateSelf",value:function(){var t=arguments.length>0&&void 0!==arguments[0]?arguments[0]:0;if(t%=360){var n=H(t*=X),r=Y(t),e=this.m,i=e[0],o=e[1];e[0]=i*r+e[2]*n,e[1]=o*r+e[3]*n,e[2]=e[2]*r-i*n,e[3]=e[3]*r-o*n,this.w=this.s=this.i=null}return this}},{key:"scaleSelf",value:function(){var t=arguments.length>0&&void 0!==arguments[0]?arguments[0]:1,n=arguments.length>1&&void 0!==arguments[1]?arguments[1]:1;if(1!==t||1!==n){var r=this.m;r[0]*=t,r[1]*=t,r[2]*=n,r[3]*=n,this.w=this.s=this.i=null}return this}},{key:"skewSelf",value:function(t,n){if(n%=360,(t%=360)||n){var r=this.m,e=r[0],i=r[1],o=r[2],u=r[3];t&&(t=K(t*X),r[2]+=e*t,r[3]+=i*t),n&&(n=K(n*X),r[0]+=o*n,r[1]+=u*n),this.w=this.s=this.i=null}return this}},{key:"resetSelf",value:function(){var t=arguments.length>0&&void 0!==arguments[0]?arguments[0]:1,n=arguments.length>1&&void 0!==arguments[1]?arguments[1]:0,r=arguments.length>2&&void 0!==arguments[2]?arguments[2]:0,e=arguments.length>3&&void 0!==arguments[3]?arguments[3]:1,i=arguments.length>4&&void 0!==arguments[4]?arguments[4]:0,o=arguments.length>5&&void 0!==arguments[5]?arguments[5]:0,u=this.m;return u[0]=t,u[1]=n,u[2]=r,u[3]=e,u[4]=i,u[5]=o,this.w=this.s=this.i=null,this}},{key:"recomposeSelf",value:function(){var t=arguments.length>0&&void 0!==arguments[0]?arguments[0]:null,n=arguments.length>1&&void 0!==arguments[1]?arguments[1]:null,r=arguments.length>2&&void 0!==arguments[2]?arguments[2]:null,e=arguments.length>3&&void 0!==arguments[3]?arguments[3]:null,i=arguments.length>4&&void 0!==arguments[4]?arguments[4]:null;return this.isIdentity||this.resetSelf(),t&&(t.x||t.y)&&this.translateSelf(t.x,t.y),n&&this.rotateSelf(n),r&&(r.x&&this.skewSelf(r.x,0),r.y&&this.skewSelf(0,r.y)),!e||1===e.x&&1===e.y||this.scaleSelf(e.x,e.y),i&&(i.x||i.y)&&this.translateSelf(i.x,i.y),this}},{key:"decompose",value:function(){var t=arguments.length>0&&void 0!==arguments[0]?arguments[0]:0,n=arguments.length>1&&void 0!==arguments[1]?arguments[1]:0,r=this.m,e=r[0]*r[0]+r[1]*r[1],i=[[r[0],r[1]],[r[2],r[3]]],o=nt(e);if(0===o)return{origin:{x:r[4],y:r[5]},translate:{x:t,y:n},scale:{x:0,y:0},skew:{x:0,y:0},rotate:0};i[0][0]/=o,i[0][1]/=o;var u=r[0]*r[3]-r[1]*r[2]<0;u&&(o=-o);var a=i[0][0]*i[1][0]+i[0][1]*i[1][1];i[1][0]-=i[0][0]*a,i[1][1]-=i[0][1]*a;var l=nt(i[1][0]*i[1][0]+i[1][1]*i[1][1]);if(0===l)return{origin:{x:r[4],y:r[5]},translate:{x:t,y:n},scale:{x:o,y:0},skew:{x:0,y:0},rotate:0};i[1][0]/=l,i[1][1]/=l,a/=l;var f=0;return i[1][1]<0?(f=Z(i[1][1])*tt,i[0][1]<0&&(f=360-f)):f=J(i[0][1])*tt,u&&(f=-f),a=W(a,nt(i[0][0]*i[0][0]+i[0][1]*i[0][1]))*tt,u&&(a=-a),{origin:{x:r[4],y:r[5]},translate:{x:t,y:n},scale:{x:o,y:l},skew:{x:a,y:0},rotate:f}}},{key:"toString",value:function(){return null===this.s&&(this.s="matrix("+this.m.map(it).join(" ")+")"),this.s}}]),t}(),et=/\.0+$/;function it(t){return Number.isInteger(t)?t:t.toFixed(14).replace(et,"")}Object.freeze({M:2,L:2,Z:0,H:1,V:1,C:6,Q:4,T:2,S:4,A:7});var ot={},ut=null;function at(n){var r=function(){if(ut)return ut;if("object"!==("undefined"==typeof document?"undefined":t(document)))return{};var n=document.createElementNS("http://www.w3.org/2000/svg","svg");return n.style.position="absolute",n.style.opacity="0.01",n.style.zIndex="-9999",n.style.left="-9999px",n.style.width="1px",n.style.height="1px",ut={svg:n}}().svg;if(!r)return function(t){return null};var e=document.createElementNS(r.namespaceURI,"path");e.setAttributeNS(null,"d",n),e.setAttributeNS(null,"fill","none"),e.setAttributeNS(null,"stroke","none"),r.appendChild(e);var i=e.getTotalLength();return function(t){var n=e.getPointAtLength(i*t);return{x:n.x,y:n.y}}}function lt(t){return ot[t]?ot[t]:ot[t]=at(t)}function ft(t,n,r,e){if(!t||!e)return!1;var i=["M",t.x,t.y];if(n&&r&&(i.push("C"),i.push(n.x),i.push(n.y),i.push(r.x),i.push(r.y)),n?!r:r){var o=n||r;i.push("Q"),i.push(o.x),i.push(o.y)}return n||r||i.push("L"),i.push(e.x),i.push(e.y),i.join(" ")}function st(t,n,r,e){var i=arguments.length>4&&void 0!==arguments[4]?arguments[4]:1,o=ft(t,n,r,e),u=lt(o);try{return u(i)}catch(t){return null}}function ct(t,n,r,e){var i=1-e;return i*i*t+2*i*e*n+e*e*r}function ht(t,n,r,e){return 2*(1-e)*(n-t)+2*e*(r-n)}function vt(t,n,r,e){var i=arguments.length>4&&void 0!==arguments[4]&&arguments[4],o=st(t,n,null,r,e);return o||(o={x:ct(t.x,n.x,r.x,e),y:ct(t.y,n.y,r.y,e)}),i&&(o.a=yt(t,n,r,e)),o}function yt(t,n,r,e){return Math.atan2(ht(t.y,n.y,r.y,e),ht(t.x,n.x,r.x,e))}function dt(t,n,r,e,i){var o=i*i;return i*o*(e-t+3*(n-r))+3*o*(t+r-2*n)+3*i*(n-t)+t}function gt(t,n,r,e,i){var o=1-i;return 3*(o*o*(n-t)+2*o*i*(r-n)+i*i*(e-r))}function pt(t,n,r,e,i){var o=arguments.length>5&&void 0!==arguments[5]&&arguments[5],u=st(t,n,r,e,i);return u||(u={x:dt(t.x,n.x,r.x,e.x,i),y:dt(t.y,n.y,r.y,e.y,i)}),o&&(u.a=mt(t,n,r,e,i)),u}function mt(t,n,r,e,i){return Math.atan2(gt(t.y,n.y,r.y,e.y,i),gt(t.x,n.x,r.x,e.x,i))}function bt(t,n,r){return t+(n-t)*r}function wt(t,n,r){var e=arguments.length>3&&void 0!==arguments[3]&&arguments[3],i={x:bt(t.x,n.x,r),y:bt(t.y,n.y,r)};return e&&(i.a=xt(t,n)),i}function xt(t,n){return Math.atan2(n.y-t.y,n.x-t.x)}function kt(t,n,r){var e=arguments.length>3&&void 0!==arguments[3]&&arguments[3];if(_t(n)){if(St(r))return vt(n,r.start,r,t,e)}else if(_t(r)){if(n.end)return vt(n,n.end,r,t,e)}else{if(n.end)return r.start?pt(n,n.end,r.start,r,t,e):vt(n,n.end,r,t,e);if(r.start)return vt(n,r.start,r,t,e)}return wt(n,r,t,e)}function At(t,n,r){var e=kt(t,n,r,!0);return e.a=function(t){var n=arguments.length>1&&void 0!==arguments[1]&&arguments[1];return n?t+Math.PI:t}(e.a)/p,e}function _t(t){return!t.type||"corner"===t.type}function St(t){return null!=t.start&&!_t(t)}var Ot=new rt;var Mt={f:Q,i:b},jt={f:Q,i:function(t,n,r){var e=b(t,n,r);return e<=0?0:e>=1?1:e}};function Ft(t,n,r,e,i,o,u,a){return n=function(t,n,r){for(var e,i,o,u=t.length-1,a={},l=0;l<=u;l++)(e=t[l]).e&&(e.e=n(e.e)),e.v&&"g"===(i=e.v).t&&i.r&&(o=r.getElementById(i.r))&&(a[i.r]=o.querySelectorAll("stop"));return a}(t,e,a),function(e){var i,o=r(e,t,Pt);return o?"c"===o.t?V(o.v):"g"===o.t?(n[o.r]&&function(t,n){for(var r=0,e=t.length;r<e;r++)t[r].setAttribute("stop-color",V(n[r]))}(n[o.r],o.v),(i=o.r)?"url(#"+i+")":"none"):"none":"none"}}function Pt(t,n,r){if(0===t)return n;if(1===t)return r;if(n&&r){var e=n.t;if(e===r.t)switch(n.t){case"c":return{t:e,v:A(t,n.v,r.v)};case"g":if(n.r===r.r)return{t:e,v:_(t,n.v,r.v),r:n.r}}}return m(t,n,r)}var Bt={fill:Ft,"fill-opacity":jt,stroke:Ft,"stroke-opacity":jt,"stroke-width":Mt,"stroke-dashoffset":{f:Q,i:b},"stroke-dasharray":{f:function(t){var n=arguments.length>1&&void 0!==arguments[1]?arguments[1]:" ";return t&&t.length>0&&(t=t.map((function(t){return Math.floor(1e4*t)/1e4}))),U(t,n)},i:function(t,n,r){var e,i,o,u=n.length,a=r.length;if(u!==a)if(0===u)n=S(u=a,0);else if(0===a)a=u,r=S(u,0);else{var l=(o=(e=u)*(i=a)/function(t,n){for(var r;n;)r=n,n=t%n,t=r;return t||1}(e,i))<0?-o:o;n=O(n,Math.floor(l/u)),r=O(r,Math.floor(l/a)),u=a=l}for(var f=[],s=0;s<u;s++)f.push(g(w(t,n[s],r[s]),6));return f}},opacity:jt,transform:function(n,r,e,i){if(!(n=function(n,r){if(!n||"object"!==t(n))return null;var e=!1;for(var i in n)n.hasOwnProperty(i)&&(n[i]&&n[i].length?(n[i].forEach((function(t){t.e&&(t.e=r(t.e))})),e=!0):delete n[i]);return e?n:null}(n,i)))return null;var o=function(t,i,o){var u=arguments.length>3&&void 0!==arguments[3]?arguments[3]:null;return n[t]?e(i,n[t],o):r&&r[t]?r[t]:u};return r&&r.a&&n.o?function(t){var r=e(t,n.o,At);return Ot.recomposeSelf(r,o("r",t,b,0)+r.a,o("k",t,x),o("s",t,x),o("t",t,x)).toString()}:function(t){return Ot.recomposeSelf(o("o",t,kt,null),o("r",t,b,0),o("k",t,x),o("s",t,x),o("t",t,x)).toString()}},r:Mt,"#size":G,"#radius":$,_:function(t,n){if(Array.isArray(t))for(var r=0;r<t.length;r++)this[t[r]]=n;else this[t]=n}};return function(t){!function(t,n){if("function"!=typeof n&&null!==n)throw new TypeError("Super expression must either be null or a function");t.prototype=Object.create(n&&n.prototype,{constructor:{value:t,writable:!0,configurable:!0}}),n&&o(t,n)}(u,t);var r=a(u);function u(){return n(this,u),r.apply(this,arguments)}return e(u,null,[{key:"build",value:function(t){var n=l(i(u),"build",this).call(this,t,Bt);n.el,n.options;var r=n.player;return function(t,n,r){t.play()}(r),r}}]),u}(L)}));
__SVGATOR_PLAYER__.build({"root":"eZMzsxtFBac1","animations":[{"duration":3000,"direction":1,"iterations":0,"fill":1,"alternate":false,"speed":1,"elements":{"eZMzsxtFBac2":{"transform":{"data":{"o":{"x":169.439842225,"y":49.69745636,"type":"corner"},"t":{"x":-169.439842225,"y":-49.69745636}},"keys":{"s":[{"t":0,"v":{"x":1,"y":1}},{"t":100,"v":{"x":1.01,"y":1.01}},{"t":300,"v":{"x":1.02,"y":1.02}},{"t":500,"v":{"x":1.03,"y":1.03}},{"t":600,"v":{"x":1,"y":1}},{"t":800,"v":{"x":1.01,"y":1.01}},{"t":1000,"v":{"x":1.02,"y":1.02}},{"t":1200,"v":{"x":1,"y":1}},{"t":1400,"v":{"x":1.01,"y":1.01}},{"t":1600,"v":{"x":1.02,"y":1.02}},{"t":1800,"v":{"x":1,"y":1}},{"t":2000,"v":{"x":1.01,"y":1.01}},{"t":2200,"v":{"x":1.02,"y":1.02}},{"t":2400,"v":{"x":1,"y":1}},{"t":2600,"v":{"x":1.01,"y":1.01}},{"t":2800,"v":{"x":1.02,"y":1.02}},{"t":3000,"v":{"x":1.03,"y":1.03}}]}},"opacity":[{"t":0,"v":1},{"t":1000,"v":0.75},{"t":2000,"v":0.5},{"t":2500,"v":0.75},{"t":3000,"v":1}]}}}],"options":{"start":"load","hover":"freeze","click":"freeze","scroll":25,"font":"embed","exportedIds":"unique","svgFormat":"animated","title":"Frame 1"},"animationSettings":{"duration":3000,"direction":1,"iterations":0,"fill":1,"alternate":false,"speed":1}})]]></script></svg>